<?xml version="1.0" encoding="UTF-8"?>
<svg version="1.1" xmlns="http://www.w3.org/2000/svg" width="512" height="512">
<path d="M0 0 C4.05523038 2.85709413 7.51585617 6.46921234 9.75 10.9375 C9.82181821 13.65510108 9.84299506 16.34609388 9.8125 19.0625 C9.80798828 19.81660156 9.80347656 20.57070313 9.79882812 21.34765625 C9.78703499 23.21097127 9.76909942 25.07424555 9.75 26.9375 C10.41 26.95167969 11.07 26.96585938 11.75 26.98046875 C59.43214883 29.27765561 106.83846619 52.91679999 141.53125 84.90625 C143.52015799 86.72708125 145.55682976 88.45837406 147.625 90.1875 C166.60118074 106.79165815 181.1033158 128.77751654 192.75 150.9375 C193.30469971 151.98768311 193.30469971 151.98768311 193.87060547 153.05908203 C210.60509403 185.2285045 218.20364332 220.68687562 218.125 256.75 C218.12418427 258.16339661 218.12418427 258.16339661 218.12335205 259.60534668 C218.08170751 275.35764413 217.10370225 290.49617685 213.75 305.9375 C213.53569336 306.93040039 213.32138672 307.92330078 213.10058594 308.94628906 C208.70033934 328.61609589 201.47666675 346.96602357 192.6328125 365.03125 C191.20290868 367.95510397 189.89912081 370.88930586 188.75 373.9375 C189.38615234 374.55625 189.38615234 374.55625 190.03515625 375.1875 C193.15241068 378.25679667 196.15975009 381.35897468 199 384.6875 C201.93279604 388.09588458 205.05072515 391.28149514 208.25 394.4375 C211.99031799 398.12743485 215.53239345 401.91253693 218.94140625 405.91015625 C221.11958492 408.35178634 223.42248008 410.63798032 225.75 412.9375 C241.69593553 428.78649975 241.69593553 428.78649975 242.25 437.9375 C241.57878528 446.63972021 235.77529844 452.54361286 229.9375 458.5 C229.25107422 459.21607422 228.56464844 459.93214844 227.85742188 460.66992188 C224.59244316 464.06463484 221.28237196 467.41065397 217.94140625 470.73046875 C215.68896636 472.97395389 213.53881624 475.24540142 211.5 477.6875 C208.12547535 481.60924487 204.48723883 485.23388965 200.80444336 488.86132812 C198.09692088 491.54320677 195.52497416 494.27986461 193.0625 497.1875 C188.09487027 502.97711163 182.6173496 509.22390343 174.7265625 510.18359375 C168.89492737 510.51199641 164.5486564 509.27806126 159.75 505.9375 C155.56269625 501.75019625 153.89052724 497.40515829 153.5546875 491.5078125 C153.58949219 489.80238281 153.58949219 489.80238281 153.625 488.0625 C153.64304687 486.91007812 153.66109375 485.75765625 153.6796875 484.5703125 C153.71449219 483.26707031 153.71449219 483.26707031 153.75 481.9375 C152.90393684 481.93977832 152.05787368 481.94205664 151.18617225 481.94440401 C101.03266018 482.07869589 50.8791672 482.18163117 0.7255113 482.24389198 C-5.2975761 482.25139614 -11.32066314 482.25916209 -17.34375 482.26708984 C-18.54282941 482.26866371 -19.74190883 482.27023757 -20.97732398 482.27185912 C-40.3882528 482.29796126 -59.79907492 482.34526562 -79.20994046 482.40041678 C-99.12985035 482.45654189 -119.04970438 482.4898561 -138.96969008 482.50203097 C-151.25971475 482.51026036 -163.54943781 482.53624456 -175.83936962 482.5849988 C-184.26902638 482.61673424 -192.69852739 482.62629608 -201.12823954 482.61850826 C-205.9905728 482.61466829 -210.85237928 482.62052105 -215.71461868 482.65273285 C-220.17134401 482.68204181 -224.62719093 482.68333498 -229.08395764 482.66289337 C-230.69117693 482.66036893 -232.29845219 482.66788768 -233.90556219 482.68679909 C-244.59910501 482.80525665 -253.83489621 481.5524972 -262.23989892 474.19578588 C-268.8149312 467.35652988 -270.87070175 459.07799442 -270.8515625 449.85546875 C-270.86013275 448.92003738 -270.868703 447.98460602 -270.87753296 447.02082825 C-270.88894983 445.05355038 -270.89007179 443.08618814 -270.88134766 441.11889648 C-270.87503651 438.14221934 -270.92198312 435.16954503 -270.97265625 432.19335938 C-271.05001421 420.51823917 -270.54940965 411.29202051 -262.6262207 402.04174805 C-255.53250801 395.30287482 -247.25698686 393.34088211 -237.74609375 393.328125 C-236.7822023 393.31158875 -235.81831085 393.29505249 -234.82521057 393.27801514 C-231.7792402 393.22985017 -228.73376789 393.20823439 -225.6875 393.1875 C-223.60869932 393.15931397 -221.52992153 393.1293829 -219.45117188 393.09765625 C-214.38415565 393.02409975 -209.31741083 392.97433311 -204.25 392.9375 C-204.59939636 392.39889343 -204.94879272 391.86028687 -205.30877686 391.30535889 C-222.54707744 364.69585688 -235.67040452 337.15414091 -242.25 305.9375 C-242.56324219 304.48609619 -242.56324219 304.48609619 -242.8828125 303.00537109 C-246.03388091 287.72119357 -246.63663385 272.61271936 -246.6875 257.0625 C-246.69376404 256.16946167 -246.70002808 255.27642334 -246.70648193 254.35632324 C-246.78472605 236.72666796 -244.77563522 219.49810387 -240.5 202.375 C-240.24033447 201.32747559 -239.98066895 200.27995117 -239.71313477 199.20068359 C-230.49552387 163.02850223 -212.72573271 129.76476599 -187.43359375 102.30859375 C-185.92708266 100.67272214 -184.44119007 99.01770415 -182.97265625 97.34765625 C-178.35832547 92.10230588 -173.61850143 87.39851453 -168.25 82.9375 C-167.40179688 82.20144531 -166.55359375 81.46539062 -165.6796875 80.70703125 C-151.97786295 68.96527697 -137.27324216 59.2157737 -121.25 50.9375 C-120.52151855 50.5549707 -119.79303711 50.17244141 -119.04248047 49.77832031 C-99.33228666 39.52779611 -78.21484252 33.01513395 -56.4296875 28.91015625 C-55.12052368 28.65927246 -55.12052368 28.65927246 -53.78491211 28.40332031 C-52.12151959 28.09765211 -50.45269592 27.81994118 -48.77954102 27.57324219 C-42.90007466 26.57711655 -40.15165034 24.65181987 -36.4375 20.0625 C-35.4215139 18.88997971 -34.40321793 17.71945757 -33.3828125 16.55078125 C-32.61372559 15.65480225 -32.61372559 15.65480225 -31.82910156 14.74072266 C-29.26048823 11.80754732 -26.55308262 9.02177902 -23.8125 6.25 C-23.0867981 5.49323975 -23.0867981 5.49323975 -22.34643555 4.72119141 C-16.00791998 -1.68671191 -8.465786 -2.76766081 0 0 Z M-15.25 16.9375 C-16.49299261 18.17760628 -17.7407523 19.41294522 -18.9921875 20.64453125 C-20.36984395 22.0129682 -21.74744694 23.38145897 -23.125 24.75 C-23.80691406 25.42353516 -24.48882812 26.09707031 -25.19140625 26.79101562 C-29.19031988 30.7708868 -32.98170281 34.85829575 -36.66455078 39.1315918 C-38.75459683 41.51226174 -40.98085418 43.72806854 -43.25 45.9375 C-46.80745223 49.45209136 -50.14265853 53.05395666 -53.38671875 56.85546875 C-56.4729913 60.30407099 -59.80158454 63.50772872 -63.11328125 66.73828125 C-65.3852713 68.94328065 -65.3852713 68.94328065 -67.25 71.9375 C-66.9524533 75.75702799 -65.87977078 77.84026629 -63.3125 80.625 C-62.68472656 81.30949219 -62.05695313 81.99398437 -61.41015625 82.69921875 C-58.2085326 86.01663349 -54.9358706 89.2598929 -51.65625 92.5 C-49.00040247 95.19033906 -46.54864568 98.00323525 -44.09375 100.875 C-41.90203687 103.32674689 -39.58932896 105.62635573 -37.25 107.9375 C-34.29816975 110.85376603 -31.44611141 113.78355835 -28.75 116.9375 C-24.52395018 121.87456768 -19.87562165 126.37880856 -15.25 130.9375 C-14.39019531 131.85917969 -13.53039062 132.78085938 -12.64453125 133.73046875 C-10.40139927 136.27655387 -10.40139927 136.27655387 -7.0625 136.0625 C-4.16728676 135.23316677 -4.16728676 135.23316677 -3.109375 133.0390625 C-1.83934125 128.45539524 -1.81854291 123.92422185 -1.6875 119.1875 C-1.62784208 117.27590784 -1.56425927 115.3644327 -1.49609375 113.453125 C-1.46020142 112.18903809 -1.46020142 112.18903809 -1.42358398 110.89941406 C-1.25 108.9375 -1.25 108.9375 -0.25 107.9375 C24.58090509 104.09200585 56.56085408 121.00189192 75.8840332 135.11401367 C81.87920074 139.65350253 87.34257243 144.72319485 92.75 149.9375 C93.91789062 151.01064453 93.91789062 151.01064453 95.109375 152.10546875 C114.89510553 170.80368572 127.10245825 196.91442189 133.75 222.9375 C133.93079102 223.62521484 134.11158203 224.31292969 134.29785156 225.02148438 C143.64809312 262.38527272 135.08071057 304.27002837 115.9296875 336.99707031 C109.6542566 347.31932297 102.1140979 356.26362069 93.75 364.9375 C93.03457031 365.71609375 92.31914062 366.4946875 91.58203125 367.296875 C81.37356027 378.09908444 68.75386082 385.94466883 55.75 392.9375 C55.75 393.2675 55.75 393.5975 55.75 393.9375 C88.09 393.9375 120.43 393.9375 153.75 393.9375 C154.08 389.6475 154.41 385.3575 154.75 380.9375 C156.62387397 374.94110329 159.42681382 370.78371455 165 367.6875 C167.75 366.9375 167.75 366.9375 169.80932617 366.93554688 C174.49951205 366.88880069 174.49951205 366.88880069 178.29052734 364.41503906 C179.65464759 362.2305201 180.74910569 360.03339968 181.8125 357.6875 C182.22532227 356.83776611 182.63814453 355.98803223 183.06347656 355.11254883 C203.11373063 312.89356696 211.66233415 263.09424496 201.75 216.9375 C201.58371094 216.10943848 201.41742188 215.28137695 201.24609375 214.42822266 C189.8444224 158.29610545 156.42455357 107.24925345 108.54052734 75.47119141 C98.32250141 68.87154094 87.76968651 63.0773009 76.75 57.9375 C75.64914062 57.41671875 74.54828125 56.8959375 73.4140625 56.359375 C49.84076464 45.72059449 24.38034739 40.53150797 -1.25 37.9375 C-1.279729 37.06798706 -1.279729 37.06798706 -1.31005859 36.1809082 C-1.40572601 33.53684063 -1.51523453 30.8935183 -1.625 28.25 C-1.6559375 27.33798828 -1.686875 26.42597656 -1.71875 25.48632812 C-1.91655247 18.95299909 -1.91655247 18.95299909 -4.25 12.9375 C-9.8714137 10.68893452 -11.58397534 13.01779819 -15.25 16.9375 Z M-119.25 64.9375 C-119.93513672 65.31100586 -120.62027344 65.68451172 -121.32617188 66.06933594 C-135.39392985 73.8266258 -148.33670106 82.97780614 -160.1015625 93.94140625 C-162.06040872 95.76135246 -164.07295875 97.47467373 -166.125 99.1875 C-187.07168231 117.57356583 -202.55861017 141.87126625 -214.25 166.9375 C-214.77078125 168.03835937 -215.2915625 169.13921875 -215.828125 170.2734375 C-226.39508911 193.68760535 -233.23391601 220.11551517 -233.48828125 245.87109375 C-233.49812042 246.69803238 -233.50795959 247.52497101 -233.51809692 248.37696838 C-233.99533902 298.94186207 -221.94672305 346.85643957 -191.25 387.9375 C-190.59899826 388.95470627 -189.94799652 389.97191254 -189.27726746 391.01994324 C-187.6181648 392.98341202 -186.67104854 393.82730918 -184.16508484 394.48313427 C-181.53222796 394.67700797 -178.95854267 394.67949589 -176.3190918 394.61865234 C-175.32349747 394.6195285 -174.32790314 394.62040466 -173.30213928 394.62130737 C-170.01702951 394.61713295 -166.73397102 394.57048535 -163.44921875 394.5234375 C-161.16951106 394.51224491 -158.88978893 394.50370502 -156.61006165 394.49771118 C-150.61408541 394.47481824 -144.61898327 394.41588941 -138.62335205 394.3494873 C-132.50357895 394.28807575 -126.38366439 394.26069847 -120.26367188 394.23046875 C-108.25873085 394.16614792 -96.25443815 394.06376155 -84.25 393.9375 C-86.67188757 392.1048152 -89.06527756 390.38354181 -91.68359375 388.84375 C-100.97002064 383.28307812 -109.30810734 377.29237257 -117.25 369.9375 C-118.06380127 369.18944092 -118.06380127 369.18944092 -118.89404297 368.42626953 C-147.87162891 341.48876004 -164.39881594 303.37618465 -166.10522461 264.01000977 C-167.31828862 224.77434907 -154.35811594 185.75644948 -127.6875 156.625 C-125.88976066 154.71433812 -124.07114473 152.82609453 -122.25 150.9375 C-121.53457031 150.15890625 -120.81914062 149.3803125 -120.08203125 148.578125 C-102.33924404 129.80339331 -77.78079736 117.93248427 -53.25 110.9375 C-56.29475326 105.95861068 -59.86439569 102.15457746 -64.0625 98.125 C-79.3333349 83.1665815 -79.3333349 83.1665815 -79.5 74.125 C-79.53867187 72.87783203 -79.53867187 72.87783203 -79.578125 71.60546875 C-78.78313275 65.14142461 -74.76465992 60.98113003 -70.4375 56.5 C-69.36238082 55.36282979 -68.28815304 54.22481612 -67.21484375 53.0859375 C-66.7029248 52.54549805 -66.19100586 52.00505859 -65.66357422 51.44824219 C-63.0890556 48.69675321 -60.66825621 45.8259727 -58.25 42.9375 C-78.07477713 42.9375 -102.13784991 55.56575146 -119.25 64.9375 Z M9.75 120.9375 C9.72421875 122.02289063 9.6984375 123.10828125 9.671875 124.2265625 C9.61556262 125.67191349 9.558216 127.11722444 9.5 128.5625 C9.48582031 129.27535156 9.47164062 129.98820313 9.45703125 130.72265625 C9.22164138 135.85415551 8.06145348 138.83031832 4.75 142.9375 C0.58047433 146.70024268 -2.47551739 148.08451415 -8.0625 148.1875 C-8.89394531 148.21328125 -9.72539062 148.2390625 -10.58203125 148.265625 C-18.43663651 147.29961205 -23.1322647 141.44207668 -28.375 136.0625 C-29.57189453 134.85787109 -29.57189453 134.85787109 -30.79296875 133.62890625 C-33.90502463 130.47528702 -36.88230742 127.42796557 -39.54296875 123.87890625 C-41.05556708 121.78400763 -41.05556708 121.78400763 -43.23046875 121.45703125 C-66.54508215 124.55189144 -88.73553233 137.95116233 -106.25 152.9375 C-107.03375 153.58589844 -107.8175 154.23429687 -108.625 154.90234375 C-114.61836396 159.99046003 -119.46166473 165.71866027 -124.25 171.9375 C-124.91902344 172.79085937 -125.58804688 173.64421875 -126.27734375 174.5234375 C-149.14465498 204.68111924 -157.49396933 242.7830677 -152.56640625 280.11328125 C-147.76092314 309.44603481 -133.55883318 335.65607525 -112.640625 356.54296875 C-111.31141516 357.8743505 -109.99317663 359.21796952 -108.72265625 360.60546875 C-94.33797274 376.10586179 -73.95496856 385.36083927 -54.25 391.9375 C-53.29295166 392.29271729 -52.33590332 392.64793457 -51.34985352 393.01391602 C-45.36615644 394.68050159 -39.03061111 394.3311051 -32.8671875 394.37890625 C-32.17166904 394.38580915 -31.47615059 394.39271206 -30.75955582 394.39982414 C-27.06545071 394.43557744 -23.37149596 394.4591441 -19.67724609 394.47290039 C-16.66681939 394.48604249 -13.6578993 394.52051696 -10.64794922 394.57543945 C7.21873347 394.89464004 23.1579439 394.5035523 39.75 386.9375 C40.51426804 386.59462448 41.27853607 386.25174896 42.06596375 385.89848328 C51.1962922 381.75703765 59.62426357 376.83861119 67.75 370.9375 C68.54148437 370.3703125 69.33296875 369.803125 70.1484375 369.21875 C98.58092983 347.68184551 118.52042991 315.36356153 124.09375 280.00390625 C126.33201112 262.31743161 126.64245879 242.13792951 121.75 224.9375 C121.40340332 223.71595215 121.40340332 223.71595215 121.04980469 222.46972656 C114.78389496 201.086817 105.10804162 181.30141619 89.69140625 165 C87.75 162.9375 87.75 162.9375 85.375 159.875 C81.30395822 155.31931039 76.56209817 151.68237321 71.75 147.9375 C70.89277344 147.26460937 70.03554688 146.59171875 69.15234375 145.8984375 C53.47540772 134.02841957 30.03009349 120.32838058 9.75 120.9375 Z M168.546875 380.234375 C165.66793717 384.56529887 166.07104521 389.0980796 166 394.1875 C165.97035156 395.21875 165.94070313 396.25 165.91015625 397.3125 C165.83955222 399.85424495 165.78680991 402.39507783 165.75 404.9375 C164.89395408 404.93885653 164.03790816 404.94021306 163.15592146 404.94161069 C112.43476445 405.02223733 61.7136349 405.1131823 10.9925209 405.21755161 C4.90419377 405.23007068 -1.18413353 405.24250343 -7.27246094 405.25488281 C-8.48455205 405.25734881 -9.69664317 405.2598148 -10.94546431 405.26235552 C-30.57889312 405.30209371 -50.21232769 405.33483637 -69.84577328 405.36499982 C-89.98717027 405.39609913 -110.12854278 405.43470203 -130.26991224 405.48029006 C-142.70107892 405.5081897 -155.13222766 405.53021636 -167.56341726 405.54476251 C-176.08460653 405.55529374 -184.60576109 405.57310468 -193.12692422 405.59666704 C-198.0452723 405.61005123 -202.96357166 405.62019995 -207.88193893 405.62171364 C-212.38510443 405.62317035 -216.88815257 405.63377209 -221.39128202 405.65163441 C-223.01993992 405.65648276 -224.64861199 405.65798071 -226.27727562 405.65577881 C-241.10928571 405.18274006 -241.10928571 405.18274006 -253.65185547 412 C-259.4459194 419.02439526 -258.70736433 429.37160919 -258.625 437.9375 C-258.63660156 439.1440625 -258.64820313 440.350625 -258.66015625 441.59375 C-258.66493022 453.45107265 -258.66493022 453.45107265 -253.65185547 463.875 C-245.72833925 471.66463192 -234.18153642 470.22990748 -223.87463379 470.2159729 C-222.19305767 470.22097878 -220.51148396 470.22685544 -218.82991362 470.23352563 C-214.21893706 470.24930421 -209.60802149 470.25275514 -204.9970212 470.25417423 C-200.02095593 470.25787201 -195.04492395 470.27302939 -190.06887817 470.28678894 C-181.45079396 470.30905369 -172.83272161 470.32407171 -164.21461487 470.33415604 C-151.75431051 470.34874674 -139.29404746 470.3742847 -126.83376735 470.40248732 C-106.61737928 470.44794817 -86.40098526 470.48456592 -66.18457031 470.515625 C-46.54718989 470.54581343 -26.90982403 470.58016506 -7.27246094 470.62011719 C-6.06184252 470.62257874 -4.8512241 470.62504028 -3.60392028 470.62757643 C2.46944771 470.63995108 8.54281554 470.65240761 14.61618328 470.66490483 C64.99410187 470.76846205 115.37203861 470.85766881 165.75 470.9375 C165.7593457 471.58299805 165.76869141 472.22849609 165.77832031 472.89355469 C165.83209101 475.82563944 165.9157234 478.75614008 166 481.6875 C166.01417969 482.70328125 166.02835937 483.7190625 166.04296875 484.765625 C166.14070456 490.56655632 166.14070456 490.56655632 168.64990234 495.63256836 C170.67193009 497.1221057 170.67193009 497.1221057 173.1015625 497.06640625 C176.92297693 495.43751426 179.29327931 492.85911514 182.125 489.875 C182.7029834 489.28154785 183.2809668 488.6880957 183.87646484 488.07666016 C187.35942031 484.47593781 190.70492946 480.78168766 193.9453125 476.9609375 C196.72854155 473.84034736 199.72833188 470.93872246 202.70361328 468.00341797 C205.92704009 464.80656699 208.92573967 461.49583056 211.86328125 458.0390625 C215.12931306 454.4011223 218.68196584 451.04131796 222.19921875 447.6484375 C224.83553613 444.8465933 226.97607409 442.35960518 228.75 438.9375 C227.95321966 434.82287651 225.54871284 432.2736094 222.75 429.25 C221.94820313 428.38246094 221.14640625 427.51492188 220.3203125 426.62109375 C216.96684409 423.1198281 213.53114259 419.7075072 210.08203125 416.30078125 C208.06703555 414.25878393 206.17360852 412.18091714 204.3125 410 C201.00788884 406.13290184 197.42154696 402.57972155 193.80371094 399.01074219 C191.11232893 396.34161833 188.53142551 393.625705 186.0625 390.75 C183.62319429 387.91782535 181.14117195 385.14415751 178.5625 382.4375 C177.61310547 381.43203125 177.61310547 381.43203125 176.64453125 380.40625 C173.76542479 378.17420046 171.60968282 378.43144557 168.546875 380.234375 Z " fill="#000000" transform="translate(270.25,2.0625)"/>
<path d="M0 0 C1.27617187 -0.02900391 2.55234375 -0.05800781 3.8671875 -0.08789062 C15.5647483 -0.16725821 15.5647483 -0.16725821 20.25 4.3125 C23.17675987 8.01972917 23.5759948 10.63990781 23.25 15.3125 C23.92546875 15.50585938 24.6009375 15.69921875 25.296875 15.8984375 C26.18890625 16.15882813 27.0809375 16.41921875 28 16.6875 C28.88171875 16.94273437 29.7634375 17.19796875 30.671875 17.4609375 C33.25 18.3125 33.25 18.3125 35.453125 19.4296875 C37.22040925 20.50201707 37.22040925 20.50201707 39.25 20.0625 C41.26557147 19.36476182 41.26557147 19.36476182 43.0703125 18.2890625 C45.56795975 17.17004492 47.39576911 16.98001138 50.125 16.9375 C50.94742188 16.90914062 51.76984375 16.88078125 52.6171875 16.8515625 C59.25304405 18.01332967 63.9505251 23.70519279 68.5 28.3125 C69.12390625 28.92867187 69.7478125 29.54484375 70.390625 30.1796875 C70.98875 30.78039062 71.586875 31.38109375 72.203125 32 C72.74098633 32.54011719 73.27884766 33.08023438 73.83300781 33.63671875 C77.40416783 37.86008925 77.60198714 41.55697716 77.5234375 46.9140625 C77.17876574 49.93732625 75.90248818 51.79784408 74.25 54.3125 C74.6945223 57.96746117 75.88706914 61.12290395 77.3125 64.5 C79.25 69.09897687 79.25 69.09897687 79.25 71.3125 C80.11625 71.23 80.9825 71.1475 81.875 71.0625 C86.12286138 71.3771564 87.9821042 72.62556345 91.25 75.3125 C95.55040668 81.16673347 94.72663223 87.25956137 94.6875 94.25 C94.70748047 95.51263672 94.72746094 96.77527344 94.74804688 98.07617188 C94.74198029 109.572344 94.74198029 109.572344 90.25 114.3125 C86.54277083 117.23925987 83.92259219 117.6384948 79.25 117.3125 C79.05664062 117.98796875 78.86328125 118.6634375 78.6640625 119.359375 C78.40367187 120.25140625 78.14328125 121.1434375 77.875 122.0625 C77.61976563 122.94421875 77.36453125 123.8259375 77.1015625 124.734375 C76.25 127.3125 76.25 127.3125 75.1328125 129.515625 C74.06048293 131.28290925 74.06048293 131.28290925 74.5 133.3125 C75.19773818 135.32807147 75.19773818 135.32807147 76.2734375 137.1328125 C77.39245508 139.63045975 77.58248862 141.45826911 77.625 144.1875 C77.65335938 145.00992188 77.68171875 145.83234375 77.7109375 146.6796875 C76.54917033 153.31554405 70.85730721 158.0130251 66.25 162.5625 C65.63382813 163.18640625 65.01765625 163.8103125 64.3828125 164.453125 C63.78210938 165.05125 63.18140625 165.649375 62.5625 166.265625 C61.75232422 167.07241699 61.75232422 167.07241699 60.92578125 167.89550781 C56.70241075 171.46666783 53.00552284 171.66448714 47.6484375 171.5859375 C44.62517375 171.24126574 42.76465592 169.96498818 40.25 168.3125 C34.54101535 169.02490321 29.00760933 171.09278031 24.25 174.3125 C22.98026698 176.62522801 22.4235615 178.65556044 21.85546875 181.22265625 C20.93713648 184.39238375 18.97962897 185.63272833 16.25 187.3125 C11.71068235 189.58215883 5.48330249 188.58769983 0.5 188.625 C-0.77617187 188.65400391 -2.05234375 188.68300781 -3.3671875 188.71289062 C-15.0647483 188.79225821 -15.0647483 188.79225821 -19.75 184.3125 C-22.67675987 180.60527083 -23.0759948 177.98509219 -22.75 173.3125 C-23.42546875 173.11914062 -24.1009375 172.92578125 -24.796875 172.7265625 C-25.68890625 172.46617187 -26.5809375 172.20578125 -27.5 171.9375 C-28.38171875 171.68226563 -29.2634375 171.42703125 -30.171875 171.1640625 C-32.75 170.3125 -32.75 170.3125 -34.953125 169.1953125 C-36.72040925 168.12298293 -36.72040925 168.12298293 -38.75 168.5625 C-40.76557147 169.26023818 -40.76557147 169.26023818 -42.5703125 170.3359375 C-45.06795975 171.45495508 -46.89576911 171.64498862 -49.625 171.6875 C-50.44742188 171.71585938 -51.26984375 171.74421875 -52.1171875 171.7734375 C-58.75304405 170.61167033 -63.4505251 164.91980721 -68 160.3125 C-68.62390625 159.69632813 -69.2478125 159.08015625 -69.890625 158.4453125 C-70.48875 157.84460938 -71.086875 157.24390625 -71.703125 156.625 C-72.24098633 156.08488281 -72.77884766 155.54476562 -73.33300781 154.98828125 C-76.90416783 150.76491075 -77.10198714 147.06802284 -77.0234375 141.7109375 C-76.67876574 138.68767375 -75.40248818 136.82715592 -73.75 134.3125 C-74.1945223 130.65753883 -75.38706914 127.50209605 -76.8125 124.125 C-78.75 119.52602313 -78.75 119.52602313 -78.75 117.3125 C-79.61625 117.395 -80.4825 117.4775 -81.375 117.5625 C-85.62286138 117.2478436 -87.4821042 115.99943655 -90.75 113.3125 C-95.05040668 107.45826653 -94.22663223 101.36543863 -94.1875 94.375 C-94.20748047 93.11236328 -94.22746094 91.84972656 -94.24804688 90.54882812 C-94.24198029 79.052656 -94.24198029 79.052656 -89.75 74.3125 C-86.04277083 71.38574013 -83.42259219 70.9865052 -78.75 71.3125 C-78.55664062 70.63703125 -78.36328125 69.9615625 -78.1640625 69.265625 C-77.90367187 68.37359375 -77.64328125 67.4815625 -77.375 66.5625 C-77.11976563 65.68078125 -76.86453125 64.7990625 -76.6015625 63.890625 C-75.75 61.3125 -75.75 61.3125 -74.6328125 59.109375 C-73.56048293 57.34209075 -73.56048293 57.34209075 -74 55.3125 C-74.69773818 53.29692853 -74.69773818 53.29692853 -75.7734375 51.4921875 C-76.89245508 48.99454025 -77.08248862 47.16673089 -77.125 44.4375 C-77.15335938 43.61507812 -77.18171875 42.79265625 -77.2109375 41.9453125 C-76.04917033 35.30945595 -70.35730721 30.6119749 -65.75 26.0625 C-65.13382813 25.43859375 -64.51765625 24.8146875 -63.8828125 24.171875 C-63.28210938 23.57375 -62.68140625 22.975625 -62.0625 22.359375 C-61.25232422 21.55258301 -61.25232422 21.55258301 -60.42578125 20.72949219 C-56.20241075 17.15833217 -52.50552284 16.96051286 -47.1484375 17.0390625 C-44.12517375 17.38373426 -42.26465592 18.66001182 -39.75 20.3125 C-34.04101535 19.60009679 -28.50760933 17.53221969 -23.75 14.3125 C-22.48026698 11.99977199 -21.9235615 9.96943956 -21.35546875 7.40234375 C-20.43713648 4.23261625 -18.47962897 2.99227167 -15.75 1.3125 C-11.21068235 -0.95715883 -4.98330249 0.03730017 0 0 Z M-9.70703125 13.54296875 C-11.01001499 15.75364902 -11.25249722 17.44696166 -11.4375 20 C-11.50324219 20.80824219 -11.56898438 21.61648437 -11.63671875 22.44921875 C-11.67410156 23.06410156 -11.71148437 23.67898437 -11.75 24.3125 C-17.28683271 26.71514114 -22.87037204 28.96505646 -28.49609375 31.15039062 C-31.49689867 32.33427817 -34.0530278 33.51451853 -36.75 35.3125 C-39.5625 35.75 -39.5625 35.75 -42.75 35.3125 C-44.33203125 34.15625 -44.33203125 34.15625 -45.875 32.75 C-48.35274094 30.1113152 -48.35274094 30.1113152 -50.56640625 30.328125 C-53.80901785 31.78991055 -56.0888545 34.13848769 -58.5625 36.625 C-59.3349707 37.35493164 -59.3349707 37.35493164 -60.12304688 38.09960938 C-61.78514278 39.69367178 -61.78514278 39.69367178 -63.75 42.3125 C-63.68307983 45.46332457 -62.78641877 46.27056324 -60.6875 48.6875 C-58.2787282 51.95099728 -58.38344017 53.32432901 -58.75 57.3125 C-59.921875 60.1015625 -59.921875 60.1015625 -61.5 62.9375 C-64.27210545 68.17369918 -66.24961373 73.3555472 -67.98828125 79.01171875 C-68.75 81.3125 -68.75 81.3125 -69.75 82.3125 C-72.00543624 82.55511665 -74.25945523 82.69582133 -76.5234375 82.8359375 C-78.75681855 83.19148624 -78.75681855 83.19148624 -80.515625 84.3515625 C-82.47998632 87.47216181 -82.18214407 90.74417045 -82.125 94.3125 C-82.13660156 95.03695312 -82.14820313 95.76140625 -82.16015625 96.5078125 C-82.14380832 99.46133836 -82.11649281 101.72960191 -80.51953125 104.26953125 C-78.30885098 105.57251499 -76.61553834 105.81499722 -74.0625 106 C-73.25425781 106.06574219 -72.44601563 106.13148438 -71.61328125 106.19921875 C-70.99839844 106.23660156 -70.38351563 106.27398437 -69.75 106.3125 C-69.51925781 106.89515625 -69.28851563 107.4778125 -69.05078125 108.078125 C-67.10114639 112.97918338 -65.12792504 117.87047044 -63.125 122.75 C-62.51785156 124.23306641 -62.51785156 124.23306641 -61.8984375 125.74609375 C-60.76448433 128.47110587 -60.76448433 128.47110587 -58.75 131.3125 C-58.3125 134.125 -58.3125 134.125 -58.75 137.3125 C-59.90625 138.89453125 -59.90625 138.89453125 -61.3125 140.4375 C-63.9511848 142.91524094 -63.9511848 142.91524094 -63.734375 145.12890625 C-62.27258945 148.37151785 -59.92401231 150.6513545 -57.4375 153.125 C-56.95087891 153.63998047 -56.46425781 154.15496094 -55.96289062 154.68554688 C-54.36882822 156.34764278 -54.36882822 156.34764278 -51.75 158.3125 C-48.59917543 158.24557983 -47.79193676 157.34891877 -45.375 155.25 C-42.11150272 152.8412282 -40.73817099 152.94594017 -36.75 153.3125 C-33.9609375 154.484375 -33.9609375 154.484375 -31.125 156.0625 C-25.88880082 158.83460545 -20.7069528 160.81211373 -15.05078125 162.55078125 C-12.75 163.3125 -12.75 163.3125 -11.75 164.3125 C-11.50738335 166.56793624 -11.36667867 168.82195523 -11.2265625 171.0859375 C-10.87101376 173.31931855 -10.87101376 173.31931855 -9.7109375 175.078125 C-6.59033819 177.04248632 -3.31832955 176.74464407 0.25 176.6875 C1.33667969 176.70490234 1.33667969 176.70490234 2.4453125 176.72265625 C5.39883836 176.70630832 7.66710191 176.67899281 10.20703125 175.08203125 C11.51001499 172.87135098 11.75249722 171.17803834 11.9375 168.625 C12.00324219 167.81675781 12.06898438 167.00851562 12.13671875 166.17578125 C12.17410156 165.56089844 12.21148437 164.94601562 12.25 164.3125 C13.12398437 163.96638672 13.12398437 163.96638672 14.015625 163.61328125 C18.91668338 161.66364639 23.80797044 159.69042504 28.6875 157.6875 C29.67621094 157.28273438 30.66492188 156.87796875 31.68359375 156.4609375 C34.40860587 155.32698433 34.40860587 155.32698433 37.25 153.3125 C40.0625 152.875 40.0625 152.875 43.25 153.3125 C44.83203125 154.46875 44.83203125 154.46875 46.375 155.875 C48.85274094 158.5136848 48.85274094 158.5136848 51.06640625 158.296875 C54.30901785 156.83508945 56.5888545 154.48651231 59.0625 152 C59.57748047 151.51337891 60.09246094 151.02675781 60.62304688 150.52539062 C62.28514278 148.93132822 62.28514278 148.93132822 64.25 146.3125 C64.18307983 143.16167543 63.28641877 142.35443676 61.1875 139.9375 C58.7787282 136.67400272 58.88344017 135.30067099 59.25 131.3125 C60.421875 128.5234375 60.421875 128.5234375 62 125.6875 C64.77210545 120.45130082 66.74961373 115.2694528 68.48828125 109.61328125 C69.25 107.3125 69.25 107.3125 70.25 106.3125 C71.72396739 106.10481771 73.2049126 105.94533983 74.6875 105.8125 C78.09497505 105.52103056 78.09497505 105.52103056 81.25 104.3125 C81.25 97.7125 81.25 91.1125 81.25 84.3125 C78.95370006 83.16435003 77.17301914 83.00480191 74.625 82.75 C73.39910156 82.62431641 73.39910156 82.62431641 72.1484375 82.49609375 C71.52195312 82.43550781 70.89546875 82.37492187 70.25 82.3125 C69.90388672 81.43851563 69.90388672 81.43851563 69.55078125 80.546875 C67.60114639 75.64581662 65.62792504 70.75452956 63.625 65.875 C63.22023438 64.88628906 62.81546875 63.89757812 62.3984375 62.87890625 C61.26448433 60.15389413 61.26448433 60.15389413 59.25 57.3125 C58.8125 54.5 58.8125 54.5 59.25 51.3125 C60.40625 49.73046875 60.40625 49.73046875 61.8125 48.1875 C64.4511848 45.70975906 64.4511848 45.70975906 64.234375 43.49609375 C62.77258945 40.25348215 60.42401231 37.9736455 57.9375 35.5 C57.45087891 34.98501953 56.96425781 34.47003906 56.46289062 33.93945312 C54.86882822 32.27735722 54.86882822 32.27735722 52.25 30.3125 C49.09917543 30.37942017 48.29193676 31.27608123 45.875 33.375 C42.61150272 35.7837718 41.23817099 35.67905983 37.25 35.3125 C34.4609375 34.140625 34.4609375 34.140625 31.625 32.5625 C26.38880082 29.79039455 21.2069528 27.81288627 15.55078125 26.07421875 C13.25 25.3125 13.25 25.3125 12.25 24.3125 C12.00738335 22.05706376 11.86667867 19.80304477 11.7265625 17.5390625 C11.37101376 15.30568145 11.37101376 15.30568145 10.2109375 13.546875 C7.09033819 11.58251368 3.81832955 11.88035593 0.25 11.9375 C-0.47445312 11.92589844 -1.19890625 11.91429687 -1.9453125 11.90234375 C-4.89883836 11.91869168 -7.16710191 11.94600719 -9.70703125 13.54296875 Z " fill="#000000" transform="translate(255.75,161.6875)"/>
<path d="M0 0 C9.93873276 9.12838044 15.24290691 21.40166396 16.47265625 34.6484375 C16.97846785 48.23937536 12.22627009 61.58784692 3.00390625 71.62890625 C-7.25552503 81.1114541 -20.10671918 86.91971868 -34.2109375 86.49609375 C-47.89784046 85.169517 -60.35614919 80.6190599 -69.75 70.25 C-78.31760514 58.99623997 -82.80332009 46.41130344 -81.75 32.25 C-79.79241938 18.87872899 -74.1731694 6.66264691 -63.24609375 -1.65625 C-43.07440911 -15.19968549 -19.40916741 -15.22541355 0 0 Z M-62.625 17 C-67.25093111 24.06232638 -70.06392023 32.75431123 -68.75 41.25 C-66.11362022 53.5687984 -61.0147432 61.8752214 -50.4296875 68.80859375 C-41.22968637 73.7572824 -32.23821533 74.35582672 -22.3125 71.6875 C-13.05238748 68.63294899 -5.45346307 62.91352163 -0.75 54.25 C4.29358375 41.71174507 4.42944682 32.7759619 -0.75 20.25 C-5.74994149 11.45699945 -13.69585047 5.19479522 -23.375 2.3125 C-38.98679606 -1.17616951 -52.9710313 4.32916608 -62.625 17 Z " fill="#000000" transform="translate(288.75,218.75)"/>
</svg>
