<?xml version="1.0" encoding="UTF-8"?>
<svg version="1.1" xmlns="http://www.w3.org/2000/svg" width="512" height="512">
<path d="M0 0 C0 14.85 0 29.7 0 45 C6.93 45.99 13.86 46.98 21 48 C24.67097204 48.80861567 28.12263414 49.60082216 31.6875 50.6875 C32.54432373 50.94168701 33.40114746 51.19587402 34.28393555 51.45776367 C53.72567513 57.45156749 72.22415909 67.16541756 88 80 C88.55929199 80.45246094 89.11858398 80.90492187 89.69482422 81.37109375 C108.08589924 96.34777056 122.11210292 113.94445784 133 135 C133.47928955 135.91966553 133.47928955 135.91966553 133.96826172 136.85791016 C143.88363505 156.15479197 150.0642018 178.27241892 150.203125 200.0234375 C150.21018463 200.76263931 150.21724426 201.50184113 150.22451782 202.26344299 C150.44939893 232.70966883 150.44939893 232.70966883 147 246 C146.69400879 247.2362915 146.69400879 247.2362915 146.38183594 248.49755859 C143.3612576 260.5205156 139.47200469 271.87695934 134 283 C133.69336426 283.63099609 133.38672852 284.26199219 133.07080078 284.91210938 C117.39771949 316.79452045 91.38966935 341.76828834 60 358 C59.38688965 358.31952637 58.7737793 358.63905273 58.14208984 358.96826172 C33.89451388 371.42746473 7.7863248 375.66198224 -19.25561523 375.45410156 C-21.36735513 375.45296914 -23.47909658 375.45361462 -25.59083557 375.45587158 C-31.24232924 375.45700426 -36.89347296 375.4337332 -42.54488635 375.40557575 C-48.48116381 375.38031701 -54.41745211 375.37820103 -60.35377502 375.37347412 C-71.55869724 375.36111546 -82.76346056 375.32839153 -93.96831328 375.28807616 C-106.74004426 375.24313525 -119.51178343 375.22131565 -132.28357399 375.20129442 C-158.52249063 375.15965142 -184.76118989 375.08638948 -211 375 C-211 355.2 -211 335.4 -211 315 C-202.197677 314.970271 -202.197677 314.970271 -193.2175293 314.93994141 C-173.78751488 314.87291147 -154.35755279 314.79537092 -134.92759991 314.71247292 C-123.15202299 314.66248706 -111.37645255 314.61604327 -99.60083008 314.578125 C-89.3295744 314.54504169 -79.05837116 314.505122 -68.78717357 314.45720994 C-63.35560764 314.4321063 -57.92407575 314.41027868 -52.49246788 314.39665604 C-47.36496089 314.3836876 -42.23757167 314.36147916 -37.11013031 314.33261681 C-35.24272001 314.32365508 -33.37529081 314.31787803 -31.50786018 314.31578636 C-1.20478988 314.27581744 27.12323787 310.28814163 51 290 C51.845625 289.31550781 52.69125 288.63101562 53.5625 287.92578125 C70.13197346 273.91939822 80.76288366 254.88536758 86 234 C86.18401367 233.26773193 86.36802734 232.53546387 86.55761719 231.78100586 C90.42615089 214.79152296 89.45295518 195.51977241 84 179 C83.63777344 177.87078125 83.27554687 176.7415625 82.90234375 175.578125 C78.67239704 163.59088619 72.1848757 152.70059342 64 143 C63.505 142.360625 63.01 141.72125 62.5 141.0625 C46.8786455 121.69202041 23.33615724 112.83403931 0 107 C0 121.19 0 135.38 0 150 C-4.09969832 147.95015084 -7.16047785 145.43181692 -10.5625 142.4375 C-11.82206003 141.34276361 -13.08248534 140.24902202 -14.34375 139.15625 C-14.96507812 138.61742187 -15.58640625 138.07859375 -16.2265625 137.5234375 C-18.63774159 135.4521603 -21.09467909 133.44078991 -23.5625 131.4375 C-27.58358091 128.17221697 -31.55345162 124.85442156 -35.5 121.5 C-39.46903543 118.12716411 -43.46017021 114.78823355 -47.5 111.5 C-52.1045358 107.75212202 -56.64019191 103.93016556 -61.1640625 100.0859375 C-65.44740948 96.45219765 -69.787994 92.89337563 -74.14453125 89.34765625 C-79.48130877 84.95996366 -84.73738641 80.47614988 -90 76 C-88.41649186 71.64276518 -85.02060993 69.17708451 -81.5625 66.3125 C-80.93287354 65.78213135 -80.30324707 65.2517627 -79.65454102 64.70532227 C-75.06583248 60.85108601 -70.42928605 57.05491217 -65.77734375 53.27734375 C-62.65603633 50.71795946 -59.5754997 48.11406209 -56.5 45.5 C-51.65045949 41.37892208 -46.74839036 37.33008517 -41.8125 33.3125 C-38.68200334 30.73853608 -35.58827539 28.12430914 -32.5 25.5 C-27.66294202 21.38963618 -22.77679374 17.34758962 -17.84765625 13.34765625 C-15.70909242 11.58458785 -13.59621782 9.80394722 -11.49609375 7.99609375 C-10.60857422 7.23425781 -10.60857422 7.23425781 -9.703125 6.45703125 C-8.54454463 5.45993443 -7.38946284 4.4587549 -6.23828125 3.453125 C-2.22117881 0 -2.22117881 0 0 0 Z " fill="#000000" transform="translate(211,46)"/>
<path d="M0 0 C3.83947365 1.91973682 6.68616475 4.15010384 9.875 6.9375 C14.47214041 10.89667524 19.13990011 14.72403483 23.9375 18.4375 C29.41532377 22.68989057 34.71014663 27.11667605 39.95410156 31.65332031 C45.21925787 36.20656816 50.59292433 40.61632017 56 45 C62.59480318 50.38184865 69.17514806 55.78130564 75.75 61.1875 C76.45914551 61.76975342 77.16829102 62.35200684 77.89892578 62.9519043 C82.31181288 66.58315967 86.67254772 70.2672892 91 74 C89.15734734 78.07519056 86.47922831 80.40717294 83.0625 83.1875 C82.48129395 83.66944824 81.90008789 84.15139648 81.30126953 84.64794922 C79.53982067 86.10565028 77.77077799 87.55365473 76 89 C75.03707031 89.79277344 74.07414063 90.58554687 73.08203125 91.40234375 C70.3941935 93.60924084 67.69817 95.80575293 65 98 C56.38666283 105.03156692 47.8026606 112.09845085 39.22167969 119.16943359 C37.0569011 120.953116 34.89180875 122.73641659 32.7265625 124.51953125 C32.02756836 125.09525879 31.32857422 125.67098633 30.60839844 126.26416016 C29.2084593 127.416727 27.80807213 128.56874986 26.40722656 129.72021484 C22.67940065 132.78575864 18.96209847 135.86306761 15.2578125 138.95703125 C14.48244141 139.60220703 13.70707031 140.24738281 12.90820312 140.91210938 C11.41694648 142.15333497 9.92853034 143.39798345 8.44335938 144.64648438 C7.77369141 145.20271484 7.10402344 145.75894531 6.4140625 146.33203125 C5.53161865 147.07030151 5.53161865 147.07030151 4.63134766 147.82348633 C3 149 3 149 0 150 C0 135.15 0 120.3 0 105 C-40.26 105 -80.52 105 -122 105 C-118.38611345 102.10889076 -114.7513372 99.29104959 -111.0625 96.5 C-96.83635091 85.6169549 -83.83160451 74.04126792 -72.87109375 59.8203125 C-72.43858307 59.27256668 -72.00607239 58.72482086 -71.56045532 58.16047668 C-69.90984301 55.96416799 -69.90984301 55.96416799 -68.47389221 53.25843811 C-63.87150277 45.58259253 -63.87150277 45.58259253 -58.88938904 44.03167725 C-55.10015791 43.72708706 -51.4542234 43.76179213 -47.65625 43.92578125 C-46.27769212 43.94633242 -44.89905314 43.96197412 -43.52038574 43.97294617 C-39.91456024 44.01468666 -36.31371392 44.1224653 -32.70983887 44.24468994 C-29.02340276 44.35781016 -25.33612678 44.4081848 -21.6484375 44.46289062 C-14.42791385 44.57456914 -7.22100705 44.78974127 0 45 C0 30.15 0 15.3 0 0 Z " fill="#000000" transform="translate(421,316)"/>
<path d="M0 0 C3.3269462 1.28308847 5.71651817 3.55061094 8.3515625 5.8828125 C9.51884586 6.89402089 10.68682496 7.90442666 11.85546875 8.9140625 C12.43570801 9.41808594 13.01594727 9.92210937 13.61376953 10.44140625 C15.96879583 12.46764864 18.3757112 14.42661585 20.7890625 16.3828125 C24.89935208 19.72504797 28.94619502 23.13286794 32.9765625 26.5703125 C37.62174084 30.52777201 42.34896562 34.29882065 47.2890625 37.8828125 C45.77847807 41.72793652 43.55548569 43.43299511 40.2890625 45.8828125 C20.97637056 61.33296606 8.85385361 85.60349332 5.2890625 109.8828125 C3.28721709 143.42545801 10.73615831 169.98252696 33.1640625 195.3984375 C35.2890625 197.8828125 35.2890625 197.8828125 35.2890625 198.8828125 C10.8690625 198.8828125 -13.5509375 198.8828125 -38.7109375 198.8828125 C-48.07051774 180.16365202 -48.07051774 180.16365202 -49.9609375 173.7578125 C-50.19635254 172.96745605 -50.43176758 172.17709961 -50.67431641 171.36279297 C-51.38769483 168.87739614 -52.05748865 166.3845881 -52.7109375 163.8828125 C-52.92266602 163.09326172 -53.13439453 162.30371094 -53.35253906 161.49023438 C-59.60616926 137.09017487 -59.29406798 108.15438724 -52.7109375 83.8828125 C-52.34497193 82.41538457 -51.97908583 80.94793682 -51.61328125 79.48046875 C-44.67294108 52.94034389 -30.02923259 26.46367618 -9.7109375 7.8828125 C-8.7828125 6.9546875 -7.8546875 6.0265625 -6.8984375 5.0703125 C-6.1765625 4.3484375 -5.4546875 3.6265625 -4.7109375 2.8828125 C-4.1953125 2.2640625 -3.6796875 1.6453125 -3.1484375 1.0078125 C-1.7109375 -0.1171875 -1.7109375 -0.1171875 0 0 Z " fill="#000000" transform="translate(87.7109375,132.1171875)"/>
</svg>
