<?xml version="1.0" encoding="UTF-8"?>
<svg version="1.1" xmlns="http://www.w3.org/2000/svg" width="512" height="512">
<path d="M0 0 C1.06679993 -0.00990463 2.13359985 -0.01980927 3.23272705 -0.03001404 C4.39286819 -0.02551239 5.55300934 -0.02101074 6.74830627 -0.01637268 C7.97810211 -0.02323593 9.20789795 -0.03009918 10.47496033 -0.03717041 C13.84084939 -0.05232209 17.20618401 -0.05393624 20.57206607 -0.04822803 C23.38516201 -0.04513404 26.19820799 -0.05123097 29.01129681 -0.05726677 C35.6494244 -0.07130594 42.28742329 -0.06975593 48.92555237 -0.05836487 C55.76655761 -0.04688485 62.60717077 -0.0609584 69.44812435 -0.08776134 C75.32855308 -0.10993561 81.20885888 -0.11655185 87.08932644 -0.11068493 C90.59839809 -0.10731815 94.10721844 -0.10971148 97.61625481 -0.12693596 C101.53021933 -0.14531018 105.4437036 -0.13120013 109.35768127 -0.11402893 C111.09485664 -0.12853088 111.09485664 -0.12853088 112.86712646 -0.14332581 C119.10300726 -0.08599281 122.89399392 0.17417696 127.61769104 4.38768005 C131.95995273 8.95848183 132.00444848 12.77184648 131.91429138 18.75898743 C131.32629844 25.95265964 129.4560395 32.87326694 127.71534729 39.8603363 C127.31301912 41.51723601 126.91187104 43.17442266 126.51184082 44.83187866 C125.46401511 49.158941 124.39967741 53.48177347 123.3318634 57.80393982 C122.24518274 62.21661442 121.17569437 66.63345176 120.10401917 71.04978943 C118.53874028 77.48613331 116.96920268 83.92140743 115.38356018 90.35276794 C115.13648315 91.36026848 115.13648315 91.36026848 114.88441467 92.38812256 C114.21452096 95.09630213 113.50048858 97.73928743 112.61769104 100.38768005 C113.65409729 100.3412738 114.69050354 100.29486755 115.75831604 100.24705505 C117.12807883 100.20952731 118.49787286 100.17312821 119.86769104 100.13768005 C120.5496051 100.10416443 121.23151917 100.0706488 121.93409729 100.03611755 C125.07594696 99.97511076 127.16841484 100.08862871 129.8139801 101.84959412 C132.47625254 105.59580206 132.19216218 108.89440213 132.14894104 113.38768005 C132.15276794 114.26037537 132.15659485 115.13307068 132.16053772 116.0322113 C132.16325594 117.87467098 132.15590098 119.71716929 132.13917542 121.55955505 C132.11776352 124.37813939 132.13897905 127.1941749 132.16456604 130.01268005 C132.16192275 131.80435234 132.15679773 133.59602304 132.14894104 135.38768005 C132.15703796 136.22943787 132.16513489 137.07119568 132.17347717 137.9384613 C132.15456421 139.11988708 132.15456421 139.11988708 132.13526917 140.32518005 C132.13208679 141.01482849 132.12890442 141.70447693 132.12562561 142.4150238 C131.36843644 145.3557056 129.96871809 146.50164511 127.61769104 148.38768005 C124.60206604 148.77830505 124.60206604 148.77830505 121.36769104 148.63768005 C120.29003479 148.6015863 119.21237854 148.56549255 118.10206604 148.52830505 C117.28222229 148.4818988 116.46237854 148.43549255 115.61769104 148.38768005 C115.62137821 149.20859005 115.62506538 150.02950005 115.62886429 150.8752861 C115.71715383 170.83837054 115.78337068 190.80142139 115.82493973 210.76465988 C115.8455759 220.4186936 115.87371661 230.0725971 115.91944885 239.72654724 C115.95928437 248.13971678 115.98511618 256.55279202 115.99404502 264.96605325 C115.99926536 269.42195827 116.01155679 273.87759351 116.04061127 278.33341217 C116.06772857 282.52604823 116.07614358 286.71830295 116.07012177 290.91101837 C116.07122366 292.45096406 116.0791997 293.99092229 116.09451294 295.53079224 C116.11438449 297.63181302 116.1096423 299.73138979 116.09870911 301.83244324 C116.10239628 303.00865108 116.10608345 304.18485893 116.10988235 305.39670944 C115.51564322 309.00780892 114.4733287 310.17466291 111.61769104 312.38768005 C109.61769104 312.91893005 109.61769104 312.91893005 107.61769104 312.88768005 C106.62769104 312.9031488 106.62769104 312.9031488 105.61769104 312.91893005 C103.61769104 312.38768005 103.61769104 312.38768005 99.61769104 308.38768005 C99.61769104 255.58768005 99.61769104 202.78768005 99.61769104 148.38768005 C-48.22230896 148.38768005 -196.06230896 148.38768005 -348.38230896 148.38768005 C-348.38230896 201.18768005 -348.38230896 253.98768005 -348.38230896 308.38768005 C-352.38230896 312.38768005 -352.38230896 312.38768005 -354.38230896 312.91893005 C-355.37230896 312.9034613 -355.37230896 312.9034613 -356.38230896 312.88768005 C-357.04230896 312.89799255 -357.70230896 312.90830505 -358.38230896 312.91893005 C-361.33839699 312.13371917 -362.47963036 310.76120399 -364.38230896 308.38768005 C-364.87450027 305.39670944 -364.87450027 305.39670944 -364.86332703 301.83244324 C-364.86674473 301.17565716 -364.87016243 300.51887108 -364.87368369 299.8421824 C-364.88026856 297.643036 -364.85827881 295.44511227 -364.83641052 293.24607849 C-364.83528216 291.66915414 -364.83591568 290.09222769 -364.83818054 288.51530457 C-364.83932908 284.23450234 -364.81579731 279.95414765 -364.78788471 275.67344952 C-364.76289432 271.19981843 -364.76053093 266.7261773 -364.75578308 262.25248718 C-364.74334634 253.78102197 -364.71051532 245.30976303 -364.67038512 236.83838868 C-364.6256891 227.19401036 -364.60368584 217.54962224 -364.58360338 207.90516615 C-364.54178329 188.06588895 -364.47141768 168.22679749 -364.38230896 148.38768005 C-365.20215271 148.4340863 -366.02199646 148.48049255 -366.86668396 148.52830505 C-367.94434021 148.5643988 -369.02199646 148.60049255 -370.13230896 148.63768005 C-371.19965271 148.6840863 -372.26699646 148.73049255 -373.36668396 148.77830505 C-377.05005369 148.30118462 -378.13493318 147.27394975 -380.38230896 144.38768005 C-380.89024353 142.4150238 -380.89024353 142.4150238 -380.89988708 140.32518005 C-380.91249573 139.53756287 -380.92510437 138.74994568 -380.93809509 137.9384613 C-380.92594971 136.67582458 -380.92594971 136.67582458 -380.91355896 135.38768005 C-380.91738586 134.51498474 -380.92121277 133.64228943 -380.92515564 132.7431488 C-380.92787386 130.90068913 -380.9205189 129.05819081 -380.90379333 127.21580505 C-380.88238144 124.39722072 -380.90359697 121.58118521 -380.92918396 118.76268005 C-380.92654067 116.97100777 -380.92141565 115.17933706 -380.91355896 113.38768005 C-380.92165588 112.54592224 -380.92975281 111.70416443 -380.93809509 110.8368988 C-380.84479456 105.00874568 -380.84479456 105.00874568 -378.47410583 101.82518005 C-376.38230896 100.38768005 -376.38230896 100.38768005 -374.38230896 100.38768005 C-374.56406677 99.24927673 -374.74582458 98.11087341 -374.93309021 96.93797302 C-375.61486471 92.64927531 -376.28230469 88.35844179 -376.94578552 84.06687927 C-377.23299224 82.22188128 -377.52390679 80.37745601 -377.8188324 78.53367615 C-382.2773246 50.61502262 -382.2773246 50.61502262 -378.75730896 42.76268005 C-373.18824135 37.19361244 -369.7616873 35.92860736 -361.9282074 35.83189392 C-360.84056091 35.83999084 -359.75291443 35.84808777 -358.63230896 35.85643005 C-357.50083435 35.85260315 -356.36935974 35.84877625 -355.20359802 35.84483337 C-352.81654468 35.84211707 -350.42946142 35.84945838 -348.04246521 35.86619568 C-344.3946529 35.8876076 -340.74881021 35.8663826 -337.10105896 35.84080505 C-334.77813796 35.84344838 -332.45521818 35.84857345 -330.13230896 35.85643005 C-328.50083923 35.84428467 -328.50083923 35.84428467 -326.83641052 35.83189392 C-319.00293062 35.92860736 -315.57637657 37.19361244 -310.00730896 42.76268005 C-303.66312763 56.91508455 -313.19697168 92.48543154 -314.38230896 100.38768005 C-222.64230896 100.38768005 -130.90230896 100.38768005 -36.38230896 100.38768005 C-35.06230896 94.44768005 -33.74230896 88.50768005 -32.38230896 82.38768005 C-30.17495865 72.76801007 -27.93344055 63.15707427 -25.66327 53.55206108 C-24.70151171 49.48222818 -23.74566163 45.41119274 -22.80296326 41.3368988 C-21.87764033 37.33837368 -20.93787937 33.3434956 -19.9880352 29.35072708 C-19.63257116 27.8457723 -19.2821124 26.3396252 -18.93702888 24.83225632 C-14.70850567 6.39973796 -14.70850567 6.39973796 -8.12876129 1.81867695 C-5.11566353 0.24874854 -3.36820125 0.00885621 0 0 Z M1.61769104 16.38768005 C-1.47540614 27.52282989 -4.4902163 38.58898595 -7.15184021 49.8212738 C-7.48080204 51.20088286 -7.80996415 52.58044417 -8.13931274 53.95996094 C-8.81779343 56.8052257 -9.49390405 59.65103933 -10.16819763 62.49729919 C-11.0321218 66.14312113 -11.90226338 69.7874278 -12.7740984 73.43136501 C-13.44995553 76.25915065 -14.12260622 79.08769134 -14.79427147 81.9164753 C-15.11423811 83.26233081 -15.43520221 84.6079496 -15.75719643 85.95332146 C-16.20296594 87.8179512 -16.64395027 89.68372298 -17.08470154 91.54954529 C-17.3360939 92.60778 -17.58748627 93.66601471 -17.84649658 94.75631714 C-18.48207437 97.4300656 -18.48207437 97.4300656 -18.38230896 100.38768005 C18.90769104 100.38768005 56.19769104 100.38768005 94.61769104 100.38768005 C97.71078822 89.25253022 100.72559838 78.18637416 103.38722229 66.9540863 C103.71618412 65.57447725 104.04534623 64.19491594 104.37469482 62.81539917 C105.05317551 59.9701344 105.72928613 57.12432078 106.40357971 54.27806091 C107.26750388 50.63223898 108.13764546 46.98793231 109.00948048 43.34399509 C109.68533761 40.51620946 110.3579883 37.68766876 111.02965355 34.85888481 C111.34962019 33.5130293 111.67058429 32.16741051 111.99257851 30.82203865 C112.43834802 28.9574089 112.87933235 27.09163712 113.32008362 25.22581482 C113.57147598 24.16758011 113.82286835 23.1093454 114.08187866 22.01904297 C114.71745645 19.34529451 114.71745645 19.34529451 114.61769104 16.38768005 C77.32769104 16.38768005 40.03769104 16.38768005 1.61769104 16.38768005 Z M-363.38230896 52.38768005 C-362.56859913 63.16176582 -362.56859913 63.16176582 -361.22605896 73.8056488 C-361.11886536 74.51498062 -361.01167175 75.22431244 -360.90122986 75.95513916 C-360.67830121 77.42299281 -360.45309377 78.89050224 -360.22557068 80.35765076 C-359.87698348 82.60958357 -359.53739955 84.86275432 -359.19871521 87.11619568 C-358.4604573 93.95216164 -358.4604573 93.95216164 -356.38230896 100.38768005 C-348.46230896 100.38768005 -340.54230896 100.38768005 -332.38230896 100.38768005 C-330.64756345 92.58132526 -329.28286254 84.83350607 -328.09519958 76.93919373 C-327.75636442 74.69392109 -327.40944117 72.44999397 -327.06199646 70.20603943 C-326.84275744 68.76275425 -326.6239909 67.31939721 -326.40574646 65.8759613 C-326.2090033 64.58214539 -326.01226013 63.28832947 -325.80955505 61.95530701 C-325.2634022 57.99362773 -325.2634022 57.99362773 -325.38230896 52.38768005 C-337.92230896 52.38768005 -350.46230896 52.38768005 -363.38230896 52.38768005 Z M-364.38230896 116.38768005 C-364.38230896 121.66768005 -364.38230896 126.94768005 -364.38230896 132.38768005 C-205.98230896 132.38768005 -47.58230896 132.38768005 115.61769104 132.38768005 C115.61769104 127.10768005 115.61769104 121.82768005 115.61769104 116.38768005 C-42.78230896 116.38768005 -201.18230896 116.38768005 -364.38230896 116.38768005 Z " fill="#000000" transform="translate(380.38230895996094,199.61231994628906)"/>
<path d="M0 0 C5.1202689 -0.5331414 9.31809837 -0.96532204 13.68115234 1.95605469 C17.62379905 5.32443584 21.07178374 9.11598122 24.38989258 13.09326172 C25.73476931 14.73292146 25.73476931 14.73292146 27.6640625 16.60546875 C24.6940625 16.60546875 21.7240625 16.60546875 18.6640625 16.60546875 C21.72391218 26.68135498 24.78402028 36.75716269 27.84444809 46.83287334 C29.26588922 51.51264929 30.68724508 56.1924511 32.10839844 60.87231445 C33.48278658 65.39816803 34.85740868 69.92395049 36.23218536 74.44968605 C36.75368641 76.16659892 37.27510659 77.88353636 37.79644012 79.60050011 C38.29388894 81.23876639 38.79149816 82.87698397 39.28927994 84.51514912 C39.76059229 86.06693407 40.23126225 87.61891431 40.7012291 89.17110729 C41.74807155 92.62301001 42.80626911 96.06998813 43.90344238 99.5062561 C44.45445618 101.24303116 44.45445618 101.24303116 45.01660156 103.01489258 C45.33695374 104.00765701 45.65730591 105.00042145 45.98736572 106.02326965 C46.6640625 108.60546875 46.6640625 108.60546875 46.6640625 112.60546875 C47.3240625 112.60546875 47.9840625 112.60546875 48.6640625 112.60546875 C48.706521 111.73873535 48.74897949 110.87200195 48.79272461 109.97900391 C49.38643422 99.55030589 50.70844114 89.31045531 52.2265625 78.98046875 C52.5790233 76.56518221 52.92976415 74.14968762 53.27635193 71.73355103 C53.48977329 70.24717107 53.7065779 68.76127143 53.92738342 67.27597046 C55.23444588 60.5607712 55.23444588 60.5607712 53.16796875 54.47265625 C52.52730469 53.81523437 51.88664062 53.1578125 51.2265625 52.48046875 C47.22782333 48.32824263 46.51267744 45.53524442 46.4765625 39.79296875 C46.46238281 38.77589844 46.44820313 37.75882813 46.43359375 36.7109375 C46.6640625 33.60546875 46.6640625 33.60546875 48.6640625 27.60546875 C57.0790625 29.58546875 57.0790625 29.58546875 65.6640625 31.60546875 C65.3134375 32.90484375 64.9628125 34.20421875 64.6015625 35.54296875 C64.15004166 39.1099834 64.37884181 40.23284172 66.6015625 43.13671875 C68.24704887 44.72049938 69.93340361 46.26305105 71.66015625 47.7578125 C72.32144531 48.36753906 72.98273438 48.97726563 73.6640625 49.60546875 C73.6640625 50.26546875 73.6640625 50.92546875 73.6640625 51.60546875 C74.3240625 51.60546875 74.9840625 51.60546875 75.6640625 51.60546875 C75.91800781 51.01121094 76.17195313 50.41695312 76.43359375 49.8046875 C77.7910388 47.37852381 79.21621652 46.17215764 81.3515625 44.41796875 C83.62060542 42.26144035 84.59729738 41.30427705 84.8984375 38.15234375 C84.61288159 35.3843284 84.61288159 35.3843284 83.6640625 31.60546875 C92.0790625 29.62546875 92.0790625 29.62546875 100.6640625 27.60546875 C102.86970021 34.22238189 104.26198721 40.98466584 101.90625 47.796875 C100.44740326 50.45611138 98.79907371 52.48770445 96.51782227 54.47753906 C94.45876405 56.4337937 94.45876405 56.4337937 94.40209961 58.94433594 C94.5181958 59.83797852 94.63429199 60.73162109 94.75390625 61.65234375 C94.8813623 62.71259766 95.00881836 63.77285156 95.14013672 64.86523438 C95.31303223 66.09951172 95.48592773 67.33378906 95.6640625 68.60546875 C95.85461116 70.08638561 96.04348303 71.56751889 96.23095703 73.04882812 C96.86519921 77.98873414 97.54423586 82.9220145 98.2265625 87.85546875 C98.46317759 89.58329406 98.69950779 91.31115841 98.93554688 93.0390625 C99.50843938 97.22832134 100.08517067 101.41703489 100.6640625 105.60546875 C103.41248544 98.97866352 105.81594251 92.3205857 107.94921875 85.47265625 C108.56365935 83.52610368 109.17816378 81.57957126 109.79272461 79.63305664 C110.10869598 78.62743683 110.42466736 77.62181702 110.75021362 76.58572388 C117.07237364 56.47823948 123.66344734 36.48668427 130.6640625 16.60546875 C127.6940625 16.60546875 124.7240625 16.60546875 121.6640625 16.60546875 C122.75267578 15.54779297 122.75267578 15.54779297 123.86328125 14.46875 C125.72999514 12.61251223 127.33260132 10.77567433 128.99609375 8.7109375 C132.71923345 4.33111804 135.60152586 1.09368128 141.41015625 -0.28125 C155.09808235 -1.18983782 168.18085366 4.08547902 178.6640625 12.60546875 C179.49679687 13.23195312 180.32953125 13.8584375 181.1875 14.50390625 C190.24928379 22.19355874 197.84600032 35.77842958 198.84460831 47.77429008 C198.90881908 50.25594302 198.9115715 52.7302392 198.89111328 55.21264648 C198.89140533 56.15001144 198.89169739 57.0873764 198.89199829 58.05314636 C198.89061201 61.13188132 198.87508389 64.21037014 198.859375 67.2890625 C198.85564238 69.43140023 198.85279658 71.57373967 198.85079956 73.71607971 C198.84318276 79.34012611 198.82355104 84.96406834 198.8013916 90.58807373 C198.78089107 96.33279003 198.77178885 102.07752325 198.76171875 107.82226562 C198.74030331 119.08337897 198.70619097 130.34441518 198.6640625 141.60546875 C193.3840625 141.27546875 188.1040625 140.94546875 182.6640625 140.60546875 C182.64424316 138.12370117 182.62442383 135.64193359 182.60400391 133.08496094 C182.53682654 124.8467178 182.45919243 116.60859646 182.37653542 108.37049484 C182.32678117 103.38016236 182.28045078 98.38984893 182.2421875 93.39941406 C182.20506918 88.57526634 182.15864052 83.75128666 182.10599899 78.92728424 C182.08759504 77.09511541 182.0724366 75.26291074 182.06071854 73.43068695 C181.95033825 56.75476867 181.70482207 41.31590308 169.67578125 28.42578125 C164.70280509 23.92596204 159.54461809 20.92902952 152.98779297 19.52880859 C152.17792938 19.3542514 151.3680658 19.17969421 150.53366089 18.99984741 C149.91669342 18.86970245 149.29972595 18.7395575 148.6640625 18.60546875 C139.74482926 44.82883653 131.21355455 71.16101657 122.9765625 97.60546875 C122.75838364 98.30580231 122.54020477 99.00613586 122.31541443 99.72769165 C118.07376656 113.34606543 113.85511387 126.97143082 109.6640625 140.60546875 C102.4040625 140.60546875 95.1440625 140.60546875 87.6640625 140.60546875 C86.71964853 134.20932808 85.77694268 127.81297606 84.83813477 121.41601562 C84.52004865 119.25181707 84.2010755 117.08774866 83.88110352 114.92382812 C81.60241342 99.50768222 79.52976201 84.07713602 77.6640625 68.60546875 C75.6840625 68.60546875 73.7040625 68.60546875 71.6640625 68.60546875 C71.5830278 69.22726517 71.5019931 69.84906158 71.41850281 70.48970032 C70.56144285 77.06214016 69.70076162 83.63409909 68.83813477 90.20581055 C68.51822742 92.64644836 68.19919152 95.08720058 67.88110352 97.52807617 C66.00439621 111.9240467 64.00527977 126.27721903 61.6640625 140.60546875 C53.7440625 140.60546875 45.8240625 140.60546875 37.6640625 140.60546875 C30.95757286 119.89544043 24.59243943 99.09138226 18.28070068 78.25836182 C17.20441057 74.70762557 16.12615875 71.1574864 15.04785633 67.60736084 C13.99103662 64.12753291 12.93503609 60.64745683 11.8793087 57.16729736 C11.38398951 55.53456058 10.88852394 53.9018682 10.39289284 52.26922607 C8.80904527 47.05023832 7.23225675 41.82918162 5.6640625 36.60546875 C5.30704065 35.41760773 5.30704065 35.41760773 4.94280624 34.20574951 C4.23292944 31.83864972 3.52727142 29.47033478 2.82299805 27.1015625 C2.49677444 26.01476952 2.49677444 26.01476952 2.16396046 24.90602112 C0.6640625 19.83568693 0.6640625 19.83568693 0.6640625 17.60546875 C-11.0999325 21.55104358 -20.97859304 26.51888023 -27.3359375 37.60546875 C-31.46047955 46.647734 -32.46662232 55.41164663 -32.54125977 65.22460938 C-32.55610916 66.45531158 -32.55610916 66.45531158 -32.57125854 67.71087646 C-32.60258097 70.39446227 -32.6275139 73.07806571 -32.65234375 75.76171875 C-32.67293862 77.63359001 -32.69393572 79.50545689 -32.71531677 81.37731934 C-32.77027602 86.28284127 -32.81979965 91.18840334 -32.86816406 96.09399414 C-32.91857107 101.10827163 -32.97415651 106.12249147 -33.02929688 111.13671875 C-33.13655823 120.95958781 -33.23759404 130.78250636 -33.3359375 140.60546875 C-38.6159375 140.60546875 -43.8959375 140.60546875 -49.3359375 140.60546875 C-49.42891453 128.42632159 -49.49984272 116.24725989 -49.54318619 104.06782913 C-49.5639965 98.41146492 -49.59219383 92.75534484 -49.63769531 87.09912109 C-49.6813875 81.633152 -49.70512383 76.16741667 -49.71544647 70.70128632 C-49.72279605 68.62343419 -49.73714732 66.5455938 -49.75885773 64.4678421 C-49.96782492 43.62648566 -49.96782492 43.62648566 -45.3359375 33.60546875 C-44.84351562 32.50589844 -44.35109375 31.40632813 -43.84375 30.2734375 C-35.48928082 15.28731341 -23.74588533 6.94895049 -7.5859375 1.29296875 C-5.06380414 0.81427813 -2.5274741 0.45873359 0 0 Z " fill="#000000" transform="translate(137.3359375,143.39453125)"/>
<path d="M0 0 C1.25951981 -0.01043099 2.51903961 -0.02086198 3.81672668 -0.03160906 C5.21709418 -0.02296054 6.61745937 -0.0139339 8.01782227 -0.00457001 C9.50335807 -0.00917738 10.98888933 -0.0155292 12.47441101 -0.02347898 C16.56234127 -0.04021816 20.6498993 -0.03190531 24.73783112 -0.01953411 C29.14417579 -0.01050461 33.55045528 -0.02444288 37.95678711 -0.0354538 C46.59106313 -0.05326612 55.22520029 -0.04938698 63.85948181 -0.03780323 C70.87500145 -0.02877984 77.89048209 -0.02754016 84.90600586 -0.0318985 C85.90343905 -0.03251143 86.90087225 -0.03312436 87.92853069 -0.03375587 C89.95462164 -0.03503473 91.98071258 -0.03633159 94.00680351 -0.03764623 C113.017835 -0.04905998 132.02878942 -0.03592587 151.03980827 -0.01444477 C167.3619453 0.00342693 183.68396854 0.00032304 200.00610352 -0.01811981 C218.94781875 -0.0395125 237.88946639 -0.04796127 256.83119202 -0.03567076 C258.84994506 -0.03439652 260.86869811 -0.03313904 262.88745117 -0.0318985 C264.37745652 -0.03097285 264.37745652 -0.03097285 265.89756298 -0.03002849 C272.90690416 -0.02657078 279.91620256 -0.03241299 286.92553711 -0.04181671 C295.46437963 -0.0530203 304.00307503 -0.05003128 312.54190063 -0.02869374 C316.90087993 -0.01816115 321.25961368 -0.01409889 325.61859131 -0.02729034 C329.605858 -0.03917465 333.59265061 -0.03271781 337.57987404 -0.01138014 C339.02530255 -0.00689715 340.47077079 -0.00921822 341.91617393 -0.01888329 C343.87524105 -0.03098227 345.83441974 -0.0162242 347.79345703 0 C349.4283181 0.00097411 349.4283181 0.00097411 351.09620667 0.00196791 C354.59097025 0.62765943 355.77342249 1.70206128 357.89672852 4.50336456 C358.29180974 7.10077912 358.4447564 9.27573279 358.41430664 11.87055206 C358.42482056 12.97369751 358.42482056 12.97369751 358.43554688 14.09912872 C358.45312733 16.52592673 358.44150491 18.95155506 358.42797852 21.37836456 C358.43067344 23.06700616 358.43455586 24.75564624 358.4395752 26.44428253 C358.44547028 29.9817051 358.43690725 33.5187234 358.41821289 37.05609894 C358.395423 41.58925302 358.40854607 46.12145984 358.43250275 50.65457916 C358.44696065 54.14105103 358.44235485 57.62729851 358.43199158 61.11377716 C358.42932425 62.78512433 358.43259428 64.45649191 358.44190979 66.12781525 C358.45207571 68.46448431 358.436576 70.79962201 358.41430664 73.13617706 C358.42240356 73.82616791 358.43050049 74.51615875 358.43884277 75.22705841 C358.3837665 78.34821128 358.15318993 80.16501193 356.24643707 82.68061399 C353.2353971 85.01638232 351.58035388 85.00447275 347.79345703 85.00672913 C346.53393723 85.01716012 345.27441742 85.0275911 343.97673035 85.03833818 C342.57636285 85.02968967 341.17599766 85.02066303 339.77563477 85.01129913 C338.29009896 85.01590651 336.8045677 85.02225832 335.31904602 85.03020811 C331.23111576 85.04694729 327.14355774 85.03863444 323.05562592 85.02626324 C318.64928124 85.01723374 314.24300175 85.03117201 309.83666992 85.04218292 C301.2023939 85.05999525 292.56825674 85.05611611 283.93397522 85.04453236 C276.91845558 85.03550896 269.90297494 85.03426929 262.88745117 85.03862762 C261.89001798 85.03924056 260.89258478 85.03985349 259.86492634 85.04048499 C257.83883539 85.04176386 255.81274445 85.04306071 253.78665352 85.04437536 C234.77562203 85.05578911 215.76466761 85.042655 196.75364876 85.02117389 C180.43151173 85.0033022 164.10948849 85.00640608 147.78735352 85.02484894 C128.84563828 85.04624163 109.90399064 85.0546904 90.96226501 85.04239988 C88.94351197 85.04112565 86.92475892 85.03986817 84.90600586 85.03862762 C83.41600051 85.03770197 83.41600051 85.03770197 81.89589405 85.03675762 C74.88655287 85.03329991 67.87725448 85.03914212 60.86791992 85.04854584 C52.3290774 85.05974942 43.790382 85.05676041 35.2515564 85.03542286 C30.8925771 85.02489028 26.53384336 85.02082801 22.17486572 85.03401947 C18.18759903 85.04590378 14.20080643 85.03944694 10.21358299 85.01810926 C8.76815448 85.01362628 7.32268625 85.01594734 5.8772831 85.02561241 C3.91821598 85.0377114 1.9590373 85.02295332 0 85.00672913 C-1.63486107 85.00575501 -1.63486107 85.00575501 -3.30274963 85.00476122 C-6.79751322 84.3790697 -7.97996546 83.30466785 -10.10327148 80.50336456 C-10.49835271 77.90595001 -10.65129937 75.73099634 -10.62084961 73.13617706 C-10.62785889 72.40074677 -10.63486816 71.66531647 -10.64208984 70.9076004 C-10.6596703 68.48080239 -10.64804788 66.05517407 -10.63452148 63.62836456 C-10.63721641 61.93972297 -10.64109883 60.25108288 -10.64611816 58.56244659 C-10.65201324 55.02502403 -10.64345022 51.48800573 -10.62475586 47.95063019 C-10.60196597 43.41747611 -10.61508904 38.88526929 -10.63904572 34.35214996 C-10.65350362 30.86567809 -10.64889781 27.37943061 -10.63853455 23.89295197 C-10.63586722 22.2216048 -10.63913725 20.55023722 -10.64845276 18.87891388 C-10.65861868 16.54224482 -10.64311897 14.20710712 -10.62084961 11.87055206 C-10.62894653 11.18056122 -10.63704346 10.49057037 -10.64538574 9.77967072 C-10.59030947 6.65851784 -10.3597329 4.8417172 -8.45298004 2.32611513 C-5.44194007 -0.00965319 -3.78689684 0.00225638 0 0 Z M5.89672852 16.50336456 C5.89672852 33.66336456 5.89672852 50.82336456 5.89672852 68.50336456 C116.77672852 68.50336456 227.65672852 68.50336456 341.89672852 68.50336456 C341.89672852 51.34336456 341.89672852 34.18336456 341.89672852 16.50336456 C231.01672852 16.50336456 120.13672852 16.50336456 5.89672852 16.50336456 Z " fill="#000000" transform="translate(82.103271484375,387.4966354370117)"/>
<path d="M0 0 C10.89653556 9.8783347 20.52392625 24.41610623 21.54394531 39.55102539 C21.58985004 42.44168858 21.6181094 45.33165874 21.6328125 48.22265625 C21.66375 49.70282227 21.66375 49.70282227 21.6953125 51.21289062 C21.74811576 61.29171336 19.3618483 70.19332772 14.8203125 79.16015625 C14.47661621 79.83876709 14.13291992 80.51737793 13.77880859 81.21655273 C6.29182177 95.33100828 -5.90404908 104.4383802 -20.6171875 110.16015625 C-21.39835937 110.48113281 -22.17953125 110.80210937 -22.984375 111.1328125 C-38.33113507 116.4036646 -56.4412798 114.07078236 -70.96875 107.6875 C-87.45888738 99.51966849 -98.22548913 86.23766615 -104.6171875 69.16015625 C-108.8236075 55.01160141 -108.5703742 37.70609583 -102.6171875 24.16015625 C-102.07384766 22.84917969 -102.07384766 22.84917969 -101.51953125 21.51171875 C-94.4809639 6.00301103 -81.05834011 -5.83178875 -65.3671875 -12.08984375 C-42.685698 -19.70343362 -18.30714106 -15.35159948 0 0 Z M-79.0234375 18.22265625 C-88.86608874 30.18823227 -91.08239382 43.08650071 -89.6171875 58.16015625 C-87.37532644 70.03668212 -80.0623797 80.70005529 -70.6171875 88.16015625 C-57.85299917 95.81866925 -44.7111556 98.32483295 -30.09375 95.47265625 C-18.60288991 91.92791792 -8.09915272 84.51517609 -1.7890625 74.16015625 C4.75733208 61.44871046 7.04528808 47.49622292 2.7578125 33.59765625 C-2.32369806 20.74338216 -11.17146438 11.27458554 -23.625 5.3515625 C-43.68617408 -2.6362418 -64.27996477 2.64464733 -79.0234375 18.22265625 Z " fill="#000000" transform="translate(254.6171875,46.83984375)"/>
<path d="M0 0 C0.66 -0.0103125 1.32 -0.020625 2 -0.03125 C5.17636987 0.81247325 6.12035386 1.75313515 8 4.5 C10.31975718 14.25934009 10.20274676 25.59966804 4.9375 34.2734375 C-3.41351821 46.20675911 -3.41351821 46.20675911 -8 48.5 C-15.0521327 49.06872038 -15.0521327 49.06872038 -18.5 47 C-20.57574592 43.54042347 -20.71863737 40.39030713 -20 36.5 C-18.51043571 33.89913954 -16.55466604 31.79038152 -14.5625 29.5625 C-9.34207331 23.22590915 -7.82498658 18.31358273 -8.14868164 10.13500977 C-8.27270389 6.69308532 -8.28429907 4.89827197 -6.24609375 2.04296875 C-3.89184892 0.42570491 -2.81563619 -0.04399432 0 0 Z " fill="#000000" transform="translate(444,39.5)"/>
<path d="M0 0 C1.71123047 -0.02900391 1.71123047 -0.02900391 3.45703125 -0.05859375 C11.75761426 -0.00982417 11.75761426 -0.00982417 15.25 2.9765625 C16.78664674 6.23233279 17.09325592 8.06546451 16.5 11.625 C15.25 14.2734375 15.25 14.2734375 12.5 16.625 C8.32844966 17.39525255 4.23046178 17.32170274 0 17.25 C-1.14082031 17.26933594 -2.28164063 17.28867187 -3.45703125 17.30859375 C-11.75761426 17.25982417 -11.75761426 17.25982417 -15.25 14.2734375 C-16.78664674 11.01766721 -17.09325592 9.18453549 -16.5 5.625 C-13.19655329 -1.37417771 -6.74903036 -0.11439035 0 0 Z " fill="#000000" transform="translate(431.5,249.375)"/>
<path d="M0 0 C0.66 -0.0103125 1.32 -0.020625 2 -0.03125 C5.04782397 0.77832824 6.15682414 1.94542293 8 4.5 C8.40100915 7.33065284 8.56122899 9.68346659 8.5 12.5 C8.51546875 13.2115625 8.5309375 13.923125 8.546875 14.65625 C8.52115187 18.10314984 8.25431936 20.14752229 6.21875 22.96875 C3.88020812 24.58267327 2.80290722 25.04379543 0 25 C-0.66 25.0103125 -1.32 25.020625 -2 25.03125 C-5.04782397 24.22167176 -6.15682414 23.05457707 -8 20.5 C-8.40100915 17.66934716 -8.56122899 15.31653341 -8.5 12.5 C-8.51546875 11.7884375 -8.5309375 11.076875 -8.546875 10.34375 C-8.52115187 6.89685016 -8.25431936 4.85247771 -6.21875 2.03125 C-3.88020812 0.41732673 -2.80290722 -0.04379543 0 0 Z " fill="#000000" transform="translate(444,111.5)"/>
<path d="M0 0 C0.7115625 -0.01546875 1.423125 -0.0309375 2.15625 -0.046875 C5.60314984 -0.02115187 7.64752229 0.24568064 10.46875 2.28125 C12.08267327 4.61979188 12.54379543 5.69709278 12.5 8.5 C12.5103125 9.16 12.520625 9.82 12.53125 10.5 C11.72167176 13.54782397 10.55457707 14.65682414 8 16.5 C5.16934716 16.90100915 2.81653341 17.06122899 0 17 C-0.7115625 17.01546875 -1.423125 17.0309375 -2.15625 17.046875 C-5.60314984 17.02115187 -7.64752229 16.75431936 -10.46875 14.71875 C-12.08267327 12.38020812 -12.54379543 11.30290722 -12.5 8.5 C-12.51546875 7.51 -12.51546875 7.51 -12.53125 6.5 C-10.82633794 0.08150756 -5.75061521 -0.12501337 0 0 Z " fill="#000000" transform="translate(500,59.5)"/>
<path d="M0 0 C0.7115625 -0.01546875 1.423125 -0.0309375 2.15625 -0.046875 C5.60314984 -0.02115187 7.64752229 0.24568064 10.46875 2.28125 C12.08267327 4.61979188 12.54379543 5.69709278 12.5 8.5 C12.5103125 9.16 12.520625 9.82 12.53125 10.5 C11.72167176 13.54782397 10.55457707 14.65682414 8 16.5 C5.16934716 16.90100915 2.81653341 17.06122899 0 17 C-0.7115625 17.01546875 -1.423125 17.0309375 -2.15625 17.046875 C-5.60314984 17.02115187 -7.64752229 16.75431936 -10.46875 14.71875 C-12.08267327 12.38020812 -12.54379543 11.30290722 -12.5 8.5 C-12.51546875 7.51 -12.51546875 7.51 -12.53125 6.5 C-10.82633794 0.08150756 -5.75061521 -0.12501337 0 0 Z " fill="#000000" transform="translate(388,59.5)"/>
<path d="M0 0 C0.66 -0.0103125 1.32 -0.020625 2 -0.03125 C5.04782397 0.77832824 6.15682414 1.94542293 8 4.5 C8.40100915 7.33065284 8.56122899 9.68346659 8.5 12.5 C8.51546875 13.2115625 8.5309375 13.923125 8.546875 14.65625 C8.52115187 18.10314984 8.25431936 20.14752229 6.21875 22.96875 C3.88020812 24.58267327 2.80290722 25.04379543 0 25 C-0.66 25.0103125 -1.32 25.020625 -2 25.03125 C-5.04782397 24.22167176 -6.15682414 23.05457707 -8 20.5 C-8.40100915 17.66934716 -8.56122899 15.31653341 -8.5 12.5 C-8.51546875 11.7884375 -8.5309375 11.076875 -8.546875 10.34375 C-8.52115187 6.89685016 -8.25431936 4.85247771 -6.21875 2.03125 C-3.88020812 0.41732673 -2.80290722 -0.04379543 0 0 Z " fill="#000000" transform="translate(444,-0.5)"/>
<path d="M0 0 C2.5 1.5 2.5 1.5 4 4 C4.66545093 8.05925065 4.8402831 10.3991687 2.9296875 14.0390625 C0.35158452 17.46244514 -1.83199566 19.37111728 -6.125 20.0625 C-11.55485893 19.97492163 -11.55485893 19.97492163 -14 18 C-16.31500706 14.75899012 -16.61099664 11.89510358 -16 8 C-11.72130717 1.59508558 -7.9412389 -1.08289621 0 0 Z " fill="#000000" transform="translate(409,99)"/>
<path d="M0 0 C3.61052971 1.89518226 6.33328237 4.12888923 7.7265625 8.0390625 C8.20084412 10.98402045 8.14191334 13.50975391 7.3125 16.375 C5.58874394 18.50917417 4.66668154 19.22806587 2 20 C-2.05019025 20.06532565 -4.5613801 20.05013182 -7.8515625 17.6484375 C-10.76925944 14.62011698 -12.38614026 12.06420333 -12.625 7.8125 C-12 4 -12 4 -10.5 1.5 C-6.96388873 -0.62166676 -3.9387976 -0.95175407 0 0 Z " fill="#000000" transform="translate(487,99)"/>
<path d="M0 0 C2.89479637 1.73687782 3.01335881 3.05152682 3.875 6.375 C4.0174003 10.50460875 3.56948182 11.83097243 1 15 C-1.863896 18.0275472 -3.95312622 19.278491 -8.0625 19.5 C-12 19 -12 19 -14.5 17.5 C-16.19698358 14.67169403 -16.68200506 12.40512816 -16.52734375 9.1015625 C-15.559914 5.24617581 -12.996073 2.51495178 -10 0 C-6.22941703 -1.25686099 -3.86146303 -0.82745636 0 0 Z " fill="#000000" transform="translate(491,18)"/>
<path d="M0 0 C3.2966327 2.40640277 5.5388531 5.09156127 6.5078125 9.1015625 C6.69361149 12.40878451 6.19828212 14.6695298 4.5 17.5 C0.96388873 19.62166676 -2.0612024 19.95175407 -6 19 C-9.61052971 17.10481774 -12.33328237 14.87111077 -13.7265625 10.9609375 C-14.20084412 8.01597955 -14.14191334 5.49024609 -13.3125 2.625 C-9.79367139 -1.73164494 -5.09192719 -1.81436486 0 0 Z " fill="#000000" transform="translate(407,18)"/>
</svg>
