<?xml version="1.0" encoding="UTF-8"?>
<svg version="1.1" xmlns="http://www.w3.org/2000/svg" width="200" height="188">
<path d="M0 0 C66 0 132 0 200 0 C200 62.04 200 124.08 200 188 C134 188 68 188 0 188 C0 125.96 0 63.92 0 0 Z " fill="#FEFEFE" transform="translate(0,0)"/>
<path d="M0 0 C8.18872526 5.8164244 13.05931363 13.6436037 15.375 23.375 C16.72683528 33.48304111 13.67843107 42.12044096 7.97265625 50.3671875 C6.24587717 52.53727172 4.37099562 54.45229147 2.375 56.375 C3.30699219 56.82488281 4.23898438 57.27476563 5.19921875 57.73828125 C23.63519676 66.91975855 38.11030506 80.10760554 45.3046875 99.9375 C46.95086583 105.07984753 47.94803648 109.99525966 48.375 115.375 C48.43945312 116.15230469 48.50390625 116.92960937 48.5703125 117.73046875 C48.60898438 118.52066406 48.64765625 119.31085938 48.6875 120.125 C48.74357422 121.20007813 48.74357422 121.20007813 48.80078125 122.296875 C48.17893367 125.3319476 46.7429195 126.43077449 44.375 128.375 C41.82690239 128.87557125 41.82690239 128.87557125 38.89620972 128.87620544 C37.78293304 128.88603958 36.66965637 128.89587372 35.52264404 128.90600586 C34.30586975 128.89633789 33.08909546 128.88666992 31.83544922 128.87670898 C30.55060638 128.88211197 29.26576355 128.88751495 27.94198608 128.89308167 C24.42136791 128.90703971 20.90123821 128.89586581 17.38064718 128.87937045 C13.69802559 128.86552197 10.01543242 128.87197957 6.33279419 128.87550354 C0.15065635 128.87820516 -6.03128727 128.86473207 -12.21337891 128.84155273 C-19.36624461 128.81491964 -26.51878606 128.81320345 -33.67168438 128.8249411 C-40.54882347 128.83570847 -47.42584497 128.82954159 -54.3029747 128.81538582 C-57.23199103 128.80961928 -60.1609215 128.80971383 -63.08993912 128.81445122 C-67.17488619 128.82009612 -71.25934603 128.8009327 -75.34423828 128.77905273 C-76.56506104 128.78355438 -77.78588379 128.78805603 -79.04370117 128.79269409 C-80.1513382 128.78278946 -81.25897522 128.77288483 -82.400177 128.76268005 C-83.36655153 128.76025016 -84.33292606 128.75782026 -85.32858467 128.75531673 C-86.46531026 128.56705995 -86.46531026 128.56705995 -87.625 128.375 C-91.74114745 122.20077883 -89.67501954 113.49092039 -88.36328125 106.50390625 C-84.4334705 89.84899404 -74.29624724 74.63780293 -59.83837891 65.20996094 C-54.5861311 61.98472909 -49.15586884 59.09287167 -43.625 56.375 C-44.42164062 55.5396875 -44.42164062 55.5396875 -45.234375 54.6875 C-51.15479921 48.29171326 -55.92363266 42.31743357 -56.625 33.375 C-56.69976562 32.58480469 -56.77453125 31.79460937 -56.8515625 30.98046875 C-57.38309621 21.20304604 -54.16326565 13.05824347 -48 5.5 C-35.1296741 -7.9575651 -15.5824992 -9.41224784 0 0 Z " fill="#070707" transform="translate(120.625,32.625)"/>
<path d="M0 0 C0.80308594 -0.00773437 1.60617188 -0.01546875 2.43359375 -0.0234375 C17.32725433 0.02484017 30.49120968 6.47132911 41.5 16.25 C50.50609151 25.62947839 57.5 38.01296752 57.5 51.25 C19.88 51.25 -17.74 51.25 -56.5 51.25 C-54.54699813 35.62598502 -48.54137465 22.31588902 -36.21875 12.09765625 C-24.95876376 4.44539549 -13.66605004 -0.13161525 0 0 Z " fill="#FDFDFD" transform="translate(99.5,97.75)"/>
<path d="M0 0 C0.495 3.465 0.495 3.465 1 7 C1.99 7.33 2.98 7.66 4 8 C3 11 3 11 0.8125 12.32421875 C-0.115625 12.77410156 -1.04375 13.22398438 -2 13.6875 C-16.52484993 21.3727052 -24.31906765 33.27265539 -29.08984375 48.65234375 C-29.83872892 51.40682698 -30.4401921 54.20096052 -31 57 C6.62 57 44.24 57 83 57 C77.40720814 36.02703053 71.03105525 23.66997817 52.8046875 12.67578125 C51.21681637 11.75970175 49.61067387 10.87536623 48 10 C48.33 9.01 48.66 8.02 49 7 C49.66 7 50.32 7 51 7 C51.37125 6.071875 51.37125 6.071875 51.75 5.125 C53.27175344 2.53801915 54.14201015 1.88129652 57 1 C72.47808001 7.4533209 84.71789652 22.87995625 91 38 C93.16298642 43.94595012 94.49980251 49.69751162 95 56 C95.06445312 56.77730469 95.12890625 57.55460937 95.1953125 58.35546875 C95.23398438 59.14566406 95.27265625 59.93585938 95.3125 60.75 C95.36857422 61.82507813 95.36857422 61.82507813 95.42578125 62.921875 C94.80393367 65.9569476 93.3679195 67.05577449 91 69 C88.45190239 69.50057125 88.45190239 69.50057125 85.52120972 69.50120544 C84.40793304 69.51103958 83.29465637 69.52087372 82.14764404 69.53100586 C80.93086975 69.52133789 79.71409546 69.51166992 78.46044922 69.50170898 C77.17560638 69.50711197 75.89076355 69.51251495 74.56698608 69.51808167 C71.04636791 69.53203971 67.52623821 69.52086581 64.00564718 69.50437045 C60.32302559 69.49052197 56.64043242 69.49697957 52.95779419 69.50050354 C46.77565635 69.50320516 40.59371273 69.48973207 34.41162109 69.46655273 C27.25875539 69.43991964 20.10621394 69.43820345 12.95331562 69.4499411 C6.07617653 69.46070847 -0.80084497 69.45454159 -7.6779747 69.44038582 C-10.60699103 69.43461928 -13.5359215 69.43471383 -16.46493912 69.43945122 C-20.54988619 69.44509612 -24.63434603 69.4259327 -28.71923828 69.40405273 C-29.94006104 69.40855438 -31.16088379 69.41305603 -32.41870117 69.41769409 C-34.08015671 69.40283714 -34.08015671 69.40283714 -35.775177 69.38768005 C-36.74155153 69.38525016 -37.70792606 69.38282026 -38.70358467 69.38031673 C-39.84031026 69.19205995 -39.84031026 69.19205995 -41 69 C-45.11614745 62.82577883 -43.05001954 54.11592039 -41.73828125 47.12890625 C-37.56632293 29.44774958 -26.83864377 14.87823416 -11.7421875 4.83203125 C-3.73702595 0 -3.73702595 0 0 0 Z " fill="#080808" transform="translate(74,92)"/>
<path d="M0 0 C4.57752187 4.96988088 7.46659533 10.68351303 7.6875 17.5 C7.2439142 25.14885788 4.71200648 30.97326033 -0.8125 36.375 C-7.7698729 40.71296358 -14.6367233 42.38233065 -22.8125 41.375 C-30.27361916 39.03382771 -34.88155024 35.05495855 -38.8125 28.375 C-39.18375 27.76011719 -39.555 27.14523438 -39.9375 26.51171875 C-42.22181553 20.93350181 -41.79385257 14.05207209 -39.75 8.4765625 C-35.84863718 1.41594392 -31.02806756 -1.78068919 -23.8125 -4.9375 C-14.699904 -7.02580325 -7.91365979 -4.57233677 0 0 Z " fill="#FAFAFA" transform="translate(116.8125,43.625)"/>
<path d="M0 0 C0.66 0.33 1.32 0.66 2 1 C1.67 2.98 1.34 4.96 1 7 C0.01 7.33 -0.98 7.66 -2 8 C-1.34 5.36 -0.68 2.72 0 0 Z " fill="#202020" transform="translate(35,130)"/>
</svg>
