<?xml version="1.0" encoding="UTF-8"?>
<svg version="1.1" xmlns="http://www.w3.org/2000/svg" width="512" height="512">
<path d="M0 0 C1.28838776 -0.00571014 2.57677551 -0.01142029 3.90420532 -0.01730347 C5.31959524 -0.01854857 6.73498527 -0.01967372 8.15037537 -0.02069092 C9.65051901 -0.02532339 11.15066149 -0.03034863 12.65080261 -0.03573608 C16.71470258 -0.04881486 20.77858607 -0.05529539 24.84250379 -0.05974674 C27.38235968 -0.06268288 29.92221111 -0.06678856 32.46206474 -0.07125092 C40.41182704 -0.08490972 48.3615791 -0.09458606 56.31135231 -0.09845281 C65.4836791 -0.10293921 74.65585729 -0.1205208 83.82813889 -0.1494534 C90.92382378 -0.17105856 98.01946681 -0.18115635 105.11518425 -0.18249393 C109.35131837 -0.18354216 113.58731248 -0.18945478 117.82341194 -0.20731354 C121.80516516 -0.22377561 125.78667278 -0.22595892 129.76844788 -0.21717453 C131.22894892 -0.21640333 132.68946309 -0.22075779 134.14993095 -0.23063278 C136.14467304 -0.24332906 138.13951357 -0.23569221 140.13427734 -0.22705078 C141.25015008 -0.22851734 142.36602282 -0.2299839 143.51570988 -0.2314949 C146.89279682 0.18888307 148.76619235 1.15686552 151.50364685 3.14044189 C153.84477694 6.1504663 153.91581292 9.41785732 153.83177185 13.17169189 C153.31311918 16.28360793 151.71809911 17.99112059 149.50364685 20.14044189 C146.77314402 21.50569331 144.6110446 21.27141457 141.55319214 21.2784729 C140.28449783 21.28392624 139.01580353 21.28937958 137.70866394 21.29499817 C136.29454046 21.29611804 134.88041692 21.29716855 133.46629333 21.29815674 C131.98308155 21.30282402 130.49987121 21.30796744 129.0166626 21.31355286 C125.81694103 21.32484524 122.61722885 21.33327411 119.41749382 21.33967209 C114.3530823 21.35034734 109.28873772 21.37059296 104.22436523 21.39279175 C89.8209898 21.45472535 75.41761743 21.50866664 61.0141449 21.54180908 C53.06340281 21.56018424 45.11277203 21.58916022 37.16211182 21.62981379 C32.956002 21.65084266 28.75003226 21.66633513 24.54386711 21.66862106 C20.58180096 21.67077669 16.62002597 21.68673875 12.65804863 21.71301079 C11.20892953 21.72017169 9.75977502 21.72232042 8.31064224 21.71890831 C-0.74251293 21.70100737 -8.28991845 22.18224036 -16.24635315 26.70294189 C-23.83867302 34.92795508 -24.64792567 44.38892905 -24.63006592 55.05786133 C-24.63233147 56.05231899 -24.63459703 57.04677666 -24.63693124 58.07136941 C-24.64325787 61.40137155 -24.64244273 64.73133285 -24.64161682 68.06134033 C-24.64460916 70.44991102 -24.64801187 72.83848122 -24.65179443 75.22705078 C-24.65971358 81.040914 -24.66284879 86.85476485 -24.66340681 92.66863319 C-24.66388255 97.39666686 -24.66594016 102.12469719 -24.66910744 106.8527298 C-24.67791144 120.2689829 -24.68252727 133.68522802 -24.68177696 147.10148403 C-24.68171703 148.18569493 -24.68171703 148.18569493 -24.68165588 149.29180908 C-24.681615 150.01550297 -24.68157412 150.73919686 -24.681532 151.48482087 C-24.68112573 163.20797658 -24.69069127 174.93110013 -24.70479425 186.65424654 C-24.71917371 198.70267928 -24.72606355 210.75109636 -24.72520047 222.7995379 C-24.72486902 229.55928165 -24.72759339 236.31899171 -24.73837852 243.07872772 C-24.74806896 249.43823239 -24.74813213 255.79766597 -24.74086189 262.15717316 C-24.7398172 264.48796187 -24.74217206 266.81875504 -24.74822235 269.14953613 C-24.7559616 272.33813652 -24.75128454 275.52649261 -24.74359131 278.71508789 C-24.74873487 279.63125814 -24.75387843 280.54742839 -24.75917786 281.49136138 C-24.70632941 291.44508798 -23.63564774 299.81505195 -16.49635315 307.14044189 C-10.20693802 312.04618569 -5.32741465 312.28977305 2.4506073 312.29866028 C3.36465718 312.30359826 4.27870705 312.30853623 5.22045541 312.31362385 C8.28978561 312.32900797 11.35909487 312.33736198 14.42845154 312.34576416 C16.62605982 312.35534196 18.82366626 312.36535198 21.02127075 312.37576294 C26.9939721 312.40282866 32.96668137 312.42382923 38.93941021 312.44376493 C45.17879369 312.46561417 51.41815272 312.49300806 57.65751648 312.51982117 C68.13209451 312.56408468 78.60668194 312.60491752 89.08128357 312.64312744 C99.87003051 312.68249271 110.65876627 312.72392141 121.44749451 312.76812744 C122.11254363 312.77085171 122.77759275 312.77357599 123.46279487 312.77638281 C126.79916036 312.79006246 130.13552567 312.80378491 133.47189093 312.81752312 C161.14912002 312.93136514 188.82637264 313.03819936 216.50364685 313.14044189 C216.17364685 312.48044189 215.84364685 311.82044189 215.50364685 311.14044189 C215.41964156 309.54596726 215.39637218 307.94803645 215.4059906 306.35137939 C215.40921326 305.41036377 215.41243591 304.46934814 215.41575623 303.49981689 C215.42413513 302.51497314 215.43251404 301.53012939 215.44114685 300.51544189 C215.44565857 299.52286377 215.45017029 298.53028564 215.45481873 297.50762939 C215.4666254 295.0518403 215.48309285 292.59617086 215.50364685 290.14044189 C214.42597203 290.14505086 213.34829721 290.14965982 212.23796558 290.15440845 C186.03233121 290.26533877 159.82672724 290.34753853 133.62090778 290.39950275 C120.94802831 290.42529933 108.27530381 290.46047786 95.6025238 290.51763916 C84.55868481 290.56742934 73.51495802 290.59972232 62.47100991 290.61088437 C56.62167897 290.61741049 50.7726691 290.63277935 44.92344093 290.66909218 C39.42000359 290.70298208 33.91702016 290.71350889 28.41348839 290.7059803 C26.3918041 290.70735797 24.37010492 290.71733191 22.34851074 290.73646927 C19.59089049 290.7612978 16.83499047 290.75538449 14.07733154 290.74171448 C13.27479661 290.75627868 12.47226167 290.77084289 11.6454075 290.78584844 C7.56281082 290.73103391 5.74385617 290.33534766 2.53029156 287.72786236 C-0.97232912 283.25606107 -0.64215128 279.66290028 -0.63679504 274.16392517 C-0.63976617 273.22244355 -0.64273729 272.28096194 -0.64579844 271.31095058 C-0.65451325 268.1365111 -0.65599603 264.96210921 -0.65748596 261.78765869 C-0.66211217 259.51964232 -0.66713655 257.25162673 -0.67253113 254.98361206 C-0.6856761 248.80797218 -0.69210416 242.63234319 -0.69654179 236.4566915 C-0.6994691 232.60157165 -0.70357325 228.74645479 -0.70804596 224.89133644 C-0.72015786 214.22064521 -0.73053891 203.54995763 -0.73392105 192.87926006 C-0.7342504 191.85447484 -0.7342504 191.85447484 -0.7345864 190.80898689 C-0.73491382 189.78172766 -0.73491382 189.78172766 -0.73524785 188.73371571 C-0.73569132 187.34593499 -0.73613788 185.95815426 -0.73658752 184.57037354 C-0.73680895 183.88198408 -0.73703038 183.19359462 -0.73725852 182.48434488 C-0.74120657 171.32982827 -0.75866013 160.17537698 -0.78194705 149.02088561 C-0.80565457 137.57263591 -0.81786459 126.12443368 -0.81928897 114.67615634 C-0.82033886 108.24680589 -0.82628567 101.81754754 -0.84410858 95.38821983 C-0.86054424 89.34147307 -0.86276667 83.29488807 -0.85396957 77.24812698 C-0.85319678 75.02650457 -0.85757359 72.80487363 -0.86742783 70.58327293 C-0.88007585 67.55462391 -0.87430932 64.526554 -0.86384583 61.49790955 C-0.87190223 60.61502894 -0.87995863 59.73214833 -0.88825917 58.82251376 C-0.85006927 54.10872454 -0.60796052 50.92881877 2.50364685 47.14044189 C5.82295163 44.04882692 8.13630208 43.76377956 12.61694908 43.75733185 C13.87871889 43.74827521 15.14048869 43.73921857 16.44049394 43.72988749 C17.8434124 43.734992 19.24632984 43.7403841 20.64924622 43.74603271 C22.13747991 43.7411454 23.6257098 43.73495634 25.11393321 43.72757483 C29.20933706 43.71113168 33.30454897 43.71350208 37.39997435 43.71894979 C41.8145355 43.72161463 46.22904486 43.70709847 50.64358521 43.69485474 C59.29454501 43.6737752 67.94543783 43.66926133 76.59642027 43.67104262 C83.6266982 43.67234901 90.65695518 43.66855241 97.68722916 43.66111755 C99.71044465 43.65901841 101.73366014 43.65692081 103.75687563 43.65482473 C104.76381392 43.65378121 105.7707522 43.65273768 106.80820377 43.65166253 C125.86267422 43.6327499 144.91710618 43.63381346 163.97158213 43.64063185 C181.41078996 43.64620778 198.8498509 43.62538158 216.2890244 43.59227139 C234.18632908 43.55855456 252.08356336 43.54336357 269.98090041 43.54798841 C280.03258769 43.55023518 290.08413921 43.54495981 300.13579941 43.52009583 C308.69326215 43.49910858 317.25051471 43.49546501 325.80798601 43.51439542 C330.17537258 43.52356932 334.54236699 43.52464601 338.90972328 43.50403976 C342.90703866 43.48538783 346.90363912 43.48976746 350.90092678 43.51258558 C352.34774255 43.51678608 353.79461251 43.51252267 355.24137108 43.49898964 C367.40347814 43.39296368 367.40347814 43.39296368 371.34111977 46.55428314 C374.65519559 50.51757509 374.63479418 52.55492118 374.66186523 57.68295288 C374.66680321 58.36253142 374.67174119 59.04210996 374.6768288 59.74228179 C374.69224424 62.03010997 374.70057532 64.31790999 374.70896912 66.60577393 C374.71854447 68.24151865 374.72855434 69.87726088 374.7389679 71.51300049 C374.76606023 75.96313745 374.78704631 80.41328506 374.80696988 84.86345911 C374.82880279 89.51064666 374.85620463 94.15780121 374.88302612 98.80496216 C374.93298953 107.60928699 374.9779148 116.4136301 375.02104849 125.21799076 C375.07038972 135.23963364 375.12531938 145.26124343 375.18072808 155.28285432 C375.29460412 175.90201935 375.40143089 196.52121598 375.50364685 217.14044189 C376.71987732 216.88907471 376.71987732 216.88907471 377.9606781 216.63262939 C385.68812206 215.21128347 391.89491916 215.15820823 399.50364685 217.14044189 C399.44309616 194.20059351 399.36558469 171.26085812 399.26793194 148.32113647 C399.22298374 137.66960642 399.18356677 127.01810973 399.1572113 116.36651611 C399.13422338 107.08160855 399.10081637 97.79680666 399.05494529 88.51198292 C399.03102388 83.59662627 399.01228798 78.68137421 399.00603294 73.76596069 C398.99997725 69.13663785 398.97995971 64.50758257 398.94937134 59.87835884 C398.94059892 58.18210268 398.93686688 56.48581154 398.93863869 54.78953362 C398.94029842 52.46674317 398.92353372 50.14476164 398.90237427 47.82208252 C398.8977653 46.524198 398.89315634 45.22631348 398.88840771 43.88909912 C398.26907773 37.85507628 396.62241829 32.33479293 391.81614685 28.32794189 C391.19352966 27.78524658 390.57091248 27.24255127 389.9294281 26.68341064 C381.82839961 21.53058254 374.05648685 21.71792011 364.72166443 21.77154541 C363.23107629 21.76907433 361.7404899 21.76523281 360.24990845 21.76013184 C357.05349731 21.75182553 353.85726452 21.7525741 350.66085243 21.76031685 C345.60541219 21.77193927 340.55019956 21.75970581 335.49478149 21.74369812 C322.94389697 21.70757735 310.3930186 21.70127693 297.84208679 21.70379639 C288.07522337 21.70550735 278.30854685 21.69840843 268.54173583 21.66381782 C263.51687231 21.64702476 258.49246502 21.64881643 253.46760333 21.66464055 C250.34360287 21.67043484 247.21981918 21.65970312 244.09585762 21.64439392 C242.64826308 21.6406663 241.2006322 21.64377988 239.75307083 21.65426445 C237.7759508 21.66763029 235.79870361 21.65409635 233.82159424 21.63923645 C232.71569348 21.63944573 231.60979273 21.63965502 230.47037983 21.63987064 C226.81240208 21.02407567 225.14546434 19.69231134 222.50364685 17.14044189 C220.76733049 13.66780917 220.90174283 9.92851176 221.50364685 6.14044189 C223.6852383 3.38474743 225.37542179 1.70455443 228.50364685 0.14044189 C230.49107441 0.04005766 232.48192406 0.00532877 234.47187805 0 C235.74465103 -0.00571014 237.01742401 -0.01142029 238.32876587 -0.01730347 C239.74757376 -0.01854894 241.16638175 -0.01967401 242.58518982 -0.02069092 C244.07338586 -0.02531839 245.56158071 -0.03034295 247.04977417 -0.03573608 C251.10198467 -0.04887747 255.15417858 -0.05530956 259.20640707 -0.05974674 C261.74093569 -0.06267744 264.27545978 -0.06678246 266.80998611 -0.07125092 C274.74749604 -0.08493652 282.68499561 -0.09459538 290.62251651 -0.09845281 C299.76934371 -0.10292257 308.91602066 -0.12041546 318.0628022 -0.1494534 C325.13983235 -0.17113546 332.21682046 -0.18116072 339.29388344 -0.18249393 C343.51632785 -0.1835382 347.73863122 -0.18936397 351.9610405 -0.20731354 C355.94194147 -0.22390509 359.92259716 -0.22589654 363.90352058 -0.21717453 C365.35624032 -0.21640978 366.80897383 -0.22067175 368.26165962 -0.23063278 C381.68175628 -0.31717296 392.35110389 1.43692611 403.50364685 9.14044189 C404.39052185 9.71794189 405.27739685 10.29544189 406.19114685 10.89044189 C414.36855852 18.84684244 420.21982 29.42392422 420.64231205 40.9103899 C420.65381925 42.4103685 420.65996328 43.91039411 420.66186523 45.41041565 C420.66680321 46.23956535 420.67174119 47.06871505 420.6768288 47.9229905 C420.69217672 50.69900422 420.7005571 53.47499485 420.70896912 56.2510376 C420.71854976 58.24189964 420.72855996 60.23275966 420.7389679 62.22361755 C420.76600276 67.62809482 420.78702004 73.03258081 420.80696988 78.43708825 C420.82883815 84.08522649 420.85622274 89.73333788 420.88302612 95.38145447 C420.93294161 106.07689539 420.9778847 116.77235123 421.02104849 127.4678213 C421.07043062 139.64426503 421.12534514 151.82068183 421.18072808 163.99709952 C421.29453057 189.04485519 421.40137341 214.09263669 421.50364685 239.14044189 C422.09065369 238.98035645 422.67766052 238.820271 423.28245544 238.65533447 C432.47481106 236.52446197 443.40081795 237.20891766 451.50364685 242.14044189 C459.05554669 247.42008869 464.16221653 254.19658384 466.50364685 263.14044189 C466.82448922 267.35279876 466.83162727 271.55790837 466.83958435 275.78106689 C466.84624115 277.01725769 466.85289795 278.25344849 466.85975647 279.52709961 C466.86987401 282.14624549 466.87457377 284.76541711 466.87425232 287.38458252 C466.87401185 291.33476758 466.91480878 295.28419025 466.9528656 299.23419189 C467.10735598 331.25371663 457.13787976 354.62979777 442.69114685 382.82794189 C441.13088412 385.87997745 439.57333944 388.93327548 438.02325439 391.99049377 C437.06995939 393.87022055 436.11095896 395.74706977 435.14505005 397.62034607 C429.86732903 408.01618713 427.54827811 417.22372169 427.36302185 428.87091064 C427.33401794 430.69332275 427.33401794 430.69332275 427.3044281 432.55255127 C427.2704185 435.0810341 427.25233282 437.60977856 427.2497406 440.13848877 C427.04196248 450.41256995 427.04196248 450.41256995 424.08177185 453.44122314 C420.22362048 455.98409564 418.16845261 456.58898091 413.50364685 456.14044189 C410.05443543 454.41583619 408.02140539 453.23018368 406.34739685 449.70684814 C405.15882344 444.68292444 405.2068107 439.84811297 405.25364685 434.70294189 C405.26113953 433.63197266 405.2686322 432.56100342 405.27635193 431.45758057 C405.57229551 409.52303557 412.80647148 393.09851022 422.37864685 373.76544189 C429.51679399 359.32151901 429.51679399 359.32151901 436.48802185 344.79669189 C437.28417908 343.11156494 437.28417908 343.11156494 438.09642029 341.39239502 C441.73835977 332.97625452 444.59600101 324.00732331 444.66477966 314.78692627 C444.67919098 313.22005066 444.67919098 313.22005066 444.69389343 311.621521 C444.69814331 310.50370239 444.70239319 309.38588379 444.70677185 308.23419189 C444.71247192 307.07673462 444.718172 305.91927734 444.7240448 304.72674561 C444.73347854 302.28245962 444.74002231 299.83816101 444.74388123 297.39385986 C444.75361102 293.65421514 444.78466033 289.91511454 444.81614685 286.17559814 C444.82267492 283.79929932 444.82792616 281.42299657 444.83177185 279.04669189 C444.85029205 277.36996399 444.85029205 277.36996399 444.8691864 275.65936279 C444.86468475 274.09248718 444.86468475 274.09248718 444.86009216 272.49395752 C444.86373779 271.57860229 444.86738342 270.66324707 444.87113953 269.72015381 C444.42474451 266.58656606 443.32723026 264.7049018 441.50364685 262.14044189 C437.48988386 259.43176748 433.18109583 259.46388231 428.50364685 260.14044189 C424.42846479 262.48150393 422.8198763 264.68551146 421.50364685 269.14044189 C421.36571716 269.78626221 421.22778748 270.43208252 421.0856781 271.09747314 C420.12773444 275.51056402 419.44220668 278.47925282 415.50364685 281.14044189 C411.46668713 282.26181959 409.22646696 282.39064885 405.25364685 281.01544189 C402.15726362 278.90427151 401.12448781 277.49205098 399.50364685 274.14044189 C399.11888123 270.99005127 399.11888123 270.99005127 399.09739685 267.48419189 C399.07548279 266.21446533 399.05356873 264.94473877 399.0309906 263.63653564 C399.01276143 260.97247314 398.99453227 258.30841064 398.9763031 255.64434814 C398.95438904 254.37462158 398.93247498 253.10489502 398.90989685 251.79669189 C398.90280701 250.6397583 398.89571716 249.48282471 398.88841248 248.29083252 C398.46400621 244.81587159 397.57296222 242.93572209 395.50364685 240.14044189 C392.66540433 238.3802915 389.80573769 237.58548242 386.50364685 237.14044189 C382.13553716 238.21456723 380.15484684 239.40124191 377.19114685 242.76544189 C375.72674358 245.69424844 375.1343829 247.62464625 374.56614685 250.76544189 C373.93225487 253.95101768 373.54661907 255.08705217 371.44114685 257.70294189 C367.38103661 259.68980435 363.94227908 259.95258294 359.50364685 259.14044189 C356.00474681 257.02652312 354.79785999 256.0230813 353.50364685 252.14044189 C353.30884065 248.79987626 353.15925789 245.46583207 353.07395935 242.12091064 C352.82329648 236.51232883 351.69587874 233.21873242 347.6247406 229.35919189 C343.76107981 227.1391879 339.80759963 227.43476132 335.50364685 228.14044189 C330.21064242 231.40633824 329.68618342 235.86154302 328.29270935 241.53497314 C327.15082791 245.30544306 325.83712927 247.03889863 322.50364685 249.14044189 C317.81981436 250.07720839 314.57520031 249.81016281 310.50364685 247.26544189 C307.61122223 244.19224073 307.37835364 242.57317002 307.37234497 238.46057129 C307.3663327 236.98014847 307.3663327 236.98014847 307.36019897 235.46981812 C307.36072769 234.38304779 307.36125641 233.29627747 307.36180115 232.17657471 C307.35658951 230.46421127 307.35658951 230.46421127 307.35127258 228.71725464 C307.34390573 226.23125956 307.33856532 223.74525786 307.33498192 221.25925446 C307.32783297 217.32561365 307.31217796 213.39209879 307.29364014 209.45849609 C307.28730253 208.11169821 307.28097691 206.76490026 307.27466297 205.41810226 C307.27149716 204.74355043 307.26833135 204.06899859 307.2650696 203.37400579 C307.22300301 194.21543817 307.19002938 185.05691216 307.17771912 175.89825439 C307.16843568 169.06178838 307.138335 162.22564701 307.09639931 155.38930511 C307.08407353 152.78183115 307.07897091 150.17431275 307.08119774 147.56681061 C307.08354678 143.91816039 307.06141176 140.27041526 307.03367615 136.62188721 C307.04027756 135.54321381 307.04687897 134.46454041 307.05368042 133.35317993 C306.97835144 127.32193263 306.60954582 123.68736713 302.50364685 119.14044189 C298.49159469 116.71807078 296.47312755 115.99255501 291.81614685 116.70294189 C287.83385737 118.43110526 285.45303929 120.24165702 283.50364685 124.14044189 C283.40402873 126.16669429 283.3701911 128.19628103 283.36561584 130.22497559 C283.35743584 132.17238396 283.35743584 132.17238396 283.34909058 134.15913391 C283.34797072 135.60635371 283.34692021 137.05357356 283.34593201 138.50079346 C283.34126492 140.01842903 283.33612153 141.53606321 283.33053589 143.05369568 C283.3192444 146.32708861 283.31081524 149.60047239 283.30441666 152.87387848 C283.2937473 158.05088198 283.27350473 163.22781988 283.251297 168.40478516 C283.18933883 183.12800081 283.13537204 197.85121304 283.10227966 212.57452393 C283.08393152 220.7021271 283.05499196 228.82962082 283.01427495 236.95714355 C282.99320584 241.25873158 282.97774785 245.56018168 282.97546768 249.86182404 C282.9733194 253.91006045 282.95743181 257.95800985 282.93107796 262.00615883 C282.92388998 263.49040201 282.92178158 264.97467999 282.92518044 266.45893669 C282.92908519 268.48863579 282.91283779 270.51834359 282.89564514 272.54797363 C282.892335 273.68286854 282.88902485 274.81776344 282.8856144 275.9870491 C282.44504148 279.62426771 281.4011364 282.02007087 279.50364685 285.14044189 C276.04439226 287.57764399 274.12026723 288.15107328 269.87864685 288.07794189 C266.21257518 287.05958865 264.82889977 286.09172445 262.50364685 283.14044189 C260.8378318 279.80881179 261.32423722 276.06370614 261.29270935 272.39825439 C261.26460265 270.59095426 261.23593803 268.78366274 261.20677185 266.97637939 C261.16580794 264.13523962 261.12891696 261.29425393 261.10227966 258.45294189 C260.97072667 236.68828314 260.97072667 236.68828314 250.50364685 218.14044189 C246.2223562 214.23107803 241.6826378 211.70636245 236.50364685 209.14044189 C236.5418928 221.62462894 236.60152662 234.10852049 236.68754959 246.59247494 C236.72685257 252.39094518 236.75912469 258.18926746 236.77464294 263.987854 C236.78992344 269.59666336 236.82456803 275.20506542 236.87195587 280.81369209 C236.88665314 282.94036863 236.89468107 285.06710334 236.8955307 287.19383049 C236.92301754 321.53623098 250.31142617 346.390129 269.82298279 373.77325439 C282.84701473 392.11738771 290.0951335 408.25299119 289.89476013 431.02105713 C289.87842723 433.23268085 289.89484049 435.4425391 289.9138031 437.65411377 C289.91182432 439.07794588 289.90798824 440.5017769 289.90208435 441.92559814 C289.89870056 443.19282715 289.89531677 444.46005615 289.89183044 445.76568604 C289.47625528 449.37857629 288.67854583 451.25957374 286.50364685 454.14044189 C282.81078438 456.46166973 279.54493861 456.34887304 275.37083435 455.68731689 C272.57166868 454.86747758 271.20664775 453.45652312 269.50364685 451.14044189 C268.52320721 448.19912298 268.38743483 446.31542525 268.4059906 443.25372314 C268.40921326 442.31593018 268.41243591 441.37813721 268.41575623 440.41192627 C268.42413513 439.43546143 268.43251404 438.45899658 268.44114685 437.45294189 C268.44565857 436.46487549 268.45017029 435.47680908 268.45481873 434.45880127 C268.46660382 432.01928716 268.48305674 429.579895 268.50364685 427.14044189 C267.30228246 427.14320727 266.10091806 427.14597265 264.86314869 427.14882183 C236.35155862 427.21378141 207.83996958 427.26325644 179.32832225 427.29363788 C175.81978774 427.29739005 172.31125339 427.30127301 168.80271912 427.30523682 C168.10422681 427.30602375 167.40573451 427.30681068 166.68607577 427.30762146 C155.37300803 427.32067891 144.05998598 427.34433461 132.74694536 427.37190028 C121.14056572 427.39994505 109.53421276 427.4163916 97.92780083 427.42270738 C91.40786931 427.42662387 84.88804144 427.43585093 78.36814308 427.45763206 C72.23443102 427.47795752 66.10086557 427.48428364 59.96712303 427.47976494 C57.71324747 427.4805919 55.45936712 427.48658086 53.20552063 427.49805832 C50.13298711 427.51294052 47.06101023 427.50941089 43.98846436 427.50120544 C43.09254666 427.50994397 42.19662897 427.51868249 41.27356225 427.52768582 C36.52125978 427.49328122 33.35780564 427.23651481 29.50364685 424.14044189 C26.65102835 420.45447855 26.12018727 417.70674897 26.10520935 413.09747314 C26.10134216 411.94053955 26.09747498 410.78360596 26.0934906 409.59161377 C26.10509216 408.39085205 26.11669373 407.19009033 26.12864685 405.95294189 C26.11704529 404.77151611 26.10544373 403.59009033 26.0934906 402.37286377 C26.13074616 391.16514969 28.11462409 381.81731176 35.50364685 373.14044189 C44.75134347 364.17139527 53.864729 362.6794747 66.4138031 362.84747314 C67.62185104 362.85171799 68.82989899 362.85596283 70.07455444 362.8603363 C73.90531897 362.87703096 77.73554327 362.91466715 81.56614685 362.95294189 C84.17486317 362.96800059 86.7835878 362.98168691 89.39231873 362.99395752 C95.76313333 363.02434296 102.13279057 363.08308507 108.50364685 363.14044189 C108.50364685 353.57044189 108.50364685 344.00044189 108.50364685 334.14044189 C104.99191833 334.16138916 101.48018982 334.18233643 97.86204529 334.20391846 C86.23125919 334.2703356 74.60044599 334.31464036 62.96952438 334.34769058 C55.92090388 334.36825515 48.87246392 334.39625768 41.82395935 334.44219971 C35.01583915 334.4865535 28.20790623 334.50961115 21.39965057 334.51995087 C18.80824592 334.52731509 16.21685097 334.54169545 13.62552643 334.56336212 C9.98279053 334.59259574 6.34081799 334.59638943 2.69798279 334.59454346 C1.63773895 334.60892456 0.57749512 334.62330566 -0.51487732 334.63812256 C-11.83994345 334.57642774 -21.62653172 331.19169259 -30.49635315 324.14044189 C-31.11123596 323.66219971 -31.72611877 323.18395752 -32.3596344 322.69122314 C-38.7698536 317.04852464 -43.79616936 307.54087918 -45.49635315 299.14044189 C-45.5874404 297.6161899 -45.62888204 296.08854241 -45.63336754 294.5615778 C-45.63844208 293.64201426 -45.64351662 292.72245072 -45.64874494 291.77502161 C-45.6492427 290.76833018 -45.64974046 289.76163876 -45.6502533 288.72444153 C-45.65463555 287.65213836 -45.6590178 286.57983519 -45.66353285 285.47503799 C-45.67692419 281.86944495 -45.68310055 278.26387636 -45.68922424 274.65826416 C-45.69712507 272.07781361 -45.70539401 269.49736417 -45.71400452 266.91691589 C-45.73851136 259.16317684 -45.75315476 251.40943141 -45.76606458 243.65566555 C-45.76977829 241.46414431 -45.77375139 239.2726237 -45.77781725 237.08110309 C-45.80305959 223.461241 -45.8251047 209.84137785 -45.83754539 196.22149754 C-45.84047492 193.06760721 -45.84343661 189.91371691 -45.84645081 186.75982666 C-45.84719686 185.9759764 -45.84794291 185.19212614 -45.84871157 184.38452285 C-45.86135269 171.69969933 -45.89455966 159.01501637 -45.93625264 146.3302585 C-45.97874366 133.29537513 -46.00224883 120.26056357 -46.00746596 107.22561115 C-46.01087236 99.91177654 -46.02253579 92.59816145 -46.0555687 85.28439522 C-46.08661774 78.39870359 -46.09194593 71.51339941 -46.08018494 64.62764931 C-46.07996454 62.10621466 -46.08824126 59.58476208 -46.10583878 57.06338882 C-46.21425838 40.62863998 -46.00172584 27.38985011 -34.7268219 14.35919189 C-25.05933551 4.7424979 -13.56212102 0.03614132 0 0 Z M20.50364685 65.14044189 C20.50364685 132.46044189 20.50364685 199.78044189 20.50364685 269.14044189 C84.85364685 269.14044189 149.20364685 269.14044189 215.50364685 269.14044189 C215.83364685 243.73044189 216.16364685 218.32044189 216.50364685 192.14044189 C221.50364685 187.14044189 221.50364685 187.14044189 224.1950531 186.54669189 C236.72226947 186.95574386 246.51958954 190.20177235 257.50364685 196.14044189 C258.8353522 196.81035464 260.16840342 197.47760918 261.50364685 198.14044189 C261.50729248 197.18545807 261.51093811 196.23047424 261.51469421 195.24655151 C261.5517557 186.21375352 261.60964936 177.18129293 261.68754959 168.14875221 C261.72693301 163.50583174 261.75916606 158.86309833 261.77464294 154.22003174 C261.78987003 149.73290988 261.82442182 145.24630263 261.87195587 140.75941086 C261.88670758 139.05399442 261.89468427 137.34850448 261.8955307 135.64302444 C261.90752283 123.58768992 262.62142937 113.1402992 271.33177185 103.96466064 C278.62151036 97.84180474 287.01124139 94.76409102 296.50364685 95.14044189 C305.80663946 96.06659421 313.4469406 99.22811535 319.8981781 106.07794189 C326.013619 113.93427473 327.63586532 121.67068197 327.70896912 131.41900635 C327.71886871 132.23903641 327.72876831 133.05906647 327.7389679 133.90394592 C327.77045638 136.60384269 327.79529012 139.30375702 327.8200531 142.00372314 C327.84063356 143.87988227 327.86163032 145.75603688 327.88302612 147.63218689 C327.93813401 152.5624118 327.98759292 157.49267777 328.03587341 162.42297363 C328.08617096 167.45708863 328.14181389 172.49114423 328.19700623 177.52520752 C328.30444974 187.39690153 328.40592522 197.26864719 328.50364685 207.14044189 C329.11885193 207.13520508 329.73405701 207.12996826 330.36790466 207.12457275 C333.16314161 207.10374819 335.95836221 207.0907643 338.75364685 207.07794189 C339.72173279 207.06956299 340.68981873 207.06118408 341.6872406 207.05255127 C343.08909607 207.04771729 343.08909607 207.04771729 344.51927185 207.04278564 C345.37810974 207.03754883 346.23694763 207.03231201 347.12181091 207.0269165 C349.50364685 207.14044189 349.50364685 207.14044189 353.50364685 208.14044189 C353.50364685 160.95044189 353.50364685 113.76044189 353.50364685 65.14044189 C243.61364685 65.14044189 133.72364685 65.14044189 20.50364685 65.14044189 Z M129.50364685 334.14044189 C129.50364685 343.71044189 129.50364685 353.28044189 129.50364685 363.14044189 C164.48364685 363.14044189 199.46364685 363.14044189 235.50364685 363.14044189 C232.03864685 357.20044189 232.03864685 357.20044189 228.50364685 351.14044189 C227.37050493 349.00976733 226.25715322 346.86798581 225.19114685 344.70294189 C224.48538513 343.28175049 224.48538513 343.28175049 223.7653656 341.83184814 C222.58330381 339.3103603 221.53789961 336.72607378 220.50364685 334.14044189 C190.47364685 334.14044189 160.44364685 334.14044189 129.50364685 334.14044189 Z M50.50364685 388.14044189 C46.03728895 394.09558576 47.50364685 397.82989521 47.50364685 406.14044189 C119.11364685 406.14044189 190.72364685 406.14044189 264.50364685 406.14044189 C262.83488776 400.88324 262.83488776 400.88324 260.19114685 396.56231689 C259.75544373 395.95903564 259.3197406 395.35575439 258.87083435 394.73419189 C258.41966248 394.12575439 257.9684906 393.51731689 257.50364685 392.89044189 C257.05247498 392.26653564 256.6013031 391.64262939 256.13645935 390.99981689 C254.36675322 388.57039783 252.63198526 386.2687803 250.50364685 384.14044189 C247.94657046 383.93859013 245.49715846 383.86237822 242.93852234 383.87301636 C242.14883773 383.86848524 241.35915311 383.86395413 240.54553866 383.85928571 C237.88470628 383.84656935 235.22407668 383.84826673 232.56321716 383.84991455 C230.66134882 383.8439337 228.75948292 383.83712918 226.85762024 383.82955933 C221.67980208 383.81184423 216.50204997 383.80720156 211.32420444 383.80592775 C207.00516201 383.80403179 202.68613506 383.79667751 198.36709857 383.78958356 C188.17692964 383.77328008 177.98679607 383.76841629 167.7966156 383.76983643 C157.27996617 383.77103749 146.7635221 383.74994714 136.24692464 383.7183491 C127.22435007 383.69220455 118.20184262 383.68146841 109.17923045 383.68274724 C103.78771555 383.68325753 98.39638293 383.67753774 93.0049057 383.65639114 C87.93235115 383.63704018 82.86015327 383.63686284 77.78758621 383.65142441 C75.92598323 383.6535177 74.06435811 383.64878069 72.20279312 383.63670349 C69.66034386 383.62127796 67.11912843 383.63054084 64.57670593 383.64596558 C63.84070325 383.63567845 63.10470057 383.62539132 62.34639478 383.61479247 C57.27600853 383.68272533 54.41301602 384.9602033 50.50364685 388.14044189 Z " fill="#000000" transform="translate(45.49635314941406,27.85955810546875)"/>
<path d="M0 0 C1.24691116 -0.00639748 1.24691116 -0.00639748 2.51901245 -0.01292419 C3.87424263 -0.01224442 3.87424263 -0.01224442 5.2568512 -0.0115509 C6.21500732 -0.01490952 7.17316345 -0.01826813 8.16035461 -0.02172852 C11.3286824 -0.03122994 14.49695731 -0.03318115 17.66529846 -0.03425598 C19.86720807 -0.03746883 22.06911746 -0.04083293 24.27102661 -0.04434204 C28.88691198 -0.05033108 33.50277862 -0.05218214 38.1186676 -0.05158997 C44.03476286 -0.05148829 49.95073824 -0.06514715 55.86680508 -0.08236217 C60.41439364 -0.09347693 64.96195315 -0.09550934 69.50955391 -0.09498024 C71.69084652 -0.09616089 73.87213986 -0.10058742 76.05341911 -0.10831261 C79.10308629 -0.11810292 82.15249237 -0.11523828 85.2021637 -0.10920715 C86.10362625 -0.11482666 87.00508881 -0.12044617 87.93386841 -0.12623596 C93.15765851 -0.09996659 97.26837862 0.18168236 101.54811096 3.48918152 C103.9246517 6.6256193 104.0292964 10.30041222 103.79420471 14.13371277 C100.99902399 19.53130313 100.99902399 19.53130313 97.79420471 21.13371277 C96.39923544 21.23373359 94.99966396 21.27308114 93.60113525 21.28088379 C92.2826207 21.29161674 92.2826207 21.29161674 90.93746948 21.30256653 C89.97068771 21.30525543 89.00390594 21.30794434 88.00782776 21.31071472 C86.99144226 21.31728592 85.97505676 21.32385712 84.9278717 21.33062744 C81.55388827 21.35038872 78.17994939 21.3620289 74.80592346 21.37199402 C73.65557932 21.37606955 72.50523518 21.38014507 71.32003212 21.3843441 C65.23240461 21.40521618 59.14479973 21.4195134 53.05714417 21.42887878 C46.76198264 21.43995001 40.46717394 21.47435526 34.17213726 21.51405048 C29.33802624 21.54016583 24.50399996 21.54856608 19.6698246 21.55216026 C17.3489576 21.55703878 15.02809469 21.56868851 12.70729637 21.58719826 C9.46083295 21.61148263 6.21529123 21.61064402 2.96876526 21.60368347 C2.00805618 21.61649353 1.04734711 21.62930359 0.05752563 21.64250183 C-4.22935164 21.60896006 -6.56608109 21.53009807 -10.27920532 19.2293396 C-13.2424185 16.00613739 -13.60540231 13.63525524 -13.55735779 9.23918152 C-12.92239786 5.43647706 -10.99511773 3.73285413 -8.20579529 1.13371277 C-5.44369112 0.19064036 -2.9046708 0.00676194 0 0 Z " fill="#000000" transform="translate(179.20579528808594,128.8662872314453)"/>
<path d="M0 0 C1.16478378 -0.00953201 2.32956757 -0.01906403 3.52964783 -0.02888489 C4.78387039 -0.02797348 6.03809296 -0.02706207 7.33032227 -0.02612305 C8.62237076 -0.03040817 9.91441925 -0.0346933 11.24562073 -0.03910828 C13.97840481 -0.04656105 16.71105969 -0.04628614 19.44384766 -0.04101562 C22.93873305 -0.03522232 26.43308825 -0.05215243 29.92788601 -0.0753603 C33.27038673 -0.09367059 36.61277168 -0.08991173 39.95532227 -0.08862305 C41.2075206 -0.09783279 42.45971893 -0.10704254 43.74986267 -0.11653137 C45.50176659 -0.10718819 45.50176659 -0.10718819 47.2890625 -0.09765625 C48.82650368 -0.09860039 48.82650368 -0.09860039 50.39500427 -0.0995636 C53.66536457 0.33531295 55.54455878 1.36398595 58.20922852 3.2746582 C60.77555368 6.69642509 60.57357902 10.12106241 60.20922852 14.2746582 C58.51122258 18.09517156 57.06999201 19.76561209 53.20922852 21.2746582 C50.52198792 21.53535461 50.52198792 21.53535461 47.41845703 21.54931641 C46.25367325 21.55884842 45.08888947 21.56838043 43.8888092 21.57820129 C42.63458664 21.57728989 41.38036407 21.57637848 40.08813477 21.57543945 C38.79608627 21.57972458 37.50403778 21.5840097 36.1728363 21.58842468 C33.44005222 21.59587746 30.70739734 21.59560255 27.97460938 21.59033203 C24.47972398 21.58453873 20.98536878 21.60146883 17.49057102 21.6246767 C14.1480703 21.64298699 10.80568535 21.63922814 7.46313477 21.63793945 C6.21093643 21.6471492 4.9587381 21.65635895 3.66859436 21.66584778 C2.50065842 21.65961899 1.33272247 21.6533902 0.12939453 21.64697266 C-1.40804665 21.64791679 -1.40804665 21.64791679 -2.97654724 21.64888 C-6.24690754 21.21400346 -8.12610175 20.18533046 -10.79077148 18.2746582 C-13.35709665 14.85289131 -13.15512199 11.42825399 -12.79077148 7.2746582 C-10.03572539 1.0758045 -6.50014845 0.02924209 0 0 Z " fill="#000000" transform="translate(178.790771484375,239.725341796875)"/>
<path d="M0 0 C1.20497635 -0.01283524 2.4099527 -0.02567047 3.65144348 -0.03889465 C5.61388252 -0.04997505 5.61388252 -0.04997505 7.6159668 -0.0612793 C8.6133339 -0.06739259 8.6133339 -0.06739259 9.63084984 -0.07362938 C13.15086939 -0.09448885 16.67084998 -0.10879046 20.19091797 -0.11816406 C23.82269412 -0.12922232 27.45385649 -0.16361465 31.08541584 -0.20333576 C33.88131328 -0.22951179 36.67706477 -0.23785675 39.47307396 -0.24144554 C41.46116742 -0.248671 43.44916108 -0.27510683 45.43708801 -0.30183411 C47.25873726 -0.29744576 47.25873726 -0.29744576 49.1171875 -0.29296875 C50.71697197 -0.30176811 50.71697197 -0.30176811 52.34907532 -0.31074524 C55.99214393 0.30121585 57.65002543 1.59931046 60.25268555 4.17700195 C61.47031286 7.82988388 61.64344405 10.33454331 61.25268555 14.17700195 C59.62027612 17.10880928 57.67947885 19.66714021 54.41978455 20.83198547 C51.86108854 21.23934678 49.42103913 21.31189957 46.82910156 21.32226562 C45.2020504 21.3318354 45.2020504 21.3318354 43.54212952 21.34159851 C42.37540207 21.34271133 41.20867462 21.34382416 40.0065918 21.3449707 C38.80332748 21.3482991 37.60006317 21.3516275 36.3603363 21.35505676 C33.81591168 21.36011883 31.27148043 21.36246531 28.72705078 21.36230469 C24.83379189 21.3644915 20.94081619 21.38265609 17.04760742 21.40161133 C14.57560318 21.40454531 12.1035976 21.40653007 9.6315918 21.4074707 C8.46688858 21.41465622 7.30218536 21.42184174 6.10218811 21.429245 C5.01433517 21.42616837 3.92648224 21.42309174 2.80566406 21.41992188 C1.85176285 21.42134689 0.89786163 21.42277191 -0.08494568 21.42424011 C-4.27079194 21.03552577 -6.97084115 19.89051796 -10.05981445 17.05200195 C-12.25517704 13.31175458 -12.62139381 10.41885767 -11.74731445 6.17700195 C-8.33315109 0.82814601 -6.13329889 0.05673848 0 0 Z " fill="#000000" transform="translate(177.747314453125,184.822998046875)"/>
<path d="M0 0 C1.39372479 -0.01653984 2.78736542 -0.04380498 4.18066406 -0.08203125 C17.2443285 -0.43807377 17.2443285 -0.43807377 21.16870117 2.62353516 C24.01959915 6.2949868 24.69505946 8.76552492 24.28588867 13.35009766 C22.70016749 17.10575308 20.75947183 19.26293779 17.28588867 21.35009766 C14.15722656 21.73828125 14.15722656 21.73828125 10.50854492 21.74853516 C9.19047852 21.75240234 7.87241211 21.75626953 6.5144043 21.76025391 C5.83031494 21.75396973 5.14622559 21.74768555 4.44140625 21.74121094 C2.3582987 21.72517395 0.27713865 21.74105985 -1.8059082 21.76025391 C-3.78494141 21.75445312 -3.78494141 21.75445312 -5.80395508 21.74853516 C-7.00914795 21.74515137 -8.21434082 21.74176758 -9.45605469 21.73828125 C-13.01958433 21.31370185 -14.872134 20.50459677 -17.71411133 18.35009766 C-20.39621044 14.32694899 -20.40254548 11.07789846 -19.71411133 6.35009766 C-15.08436469 -1.31293126 -8.10946839 0.07045916 0 0 Z " fill="#000000" transform="translate(117.714111328125,239.64990234375)"/>
<path d="M0 0 C1.50438931 -0.01654423 3.0087005 -0.04381485 4.51269531 -0.08203125 C6.68685471 -0.13696442 8.85917452 -0.15869604 11.03393555 -0.17333984 C12.33564697 -0.19315918 13.6373584 -0.21297852 14.97851562 -0.23339844 C19.31088852 0.49439879 20.73664627 1.97902772 23.4519043 5.35009766 C24.57739883 8.04194864 24.74110659 10.45240412 24.4519043 13.35009766 C22.78926481 16.80327197 21.62601055 18.75977264 18.17407227 20.49536133 C13.10091183 22.08828821 7.85093631 21.67716681 2.5769043 21.66259766 C0.83860352 21.68676758 0.83860352 21.68676758 -0.93481445 21.71142578 C-7.20246286 21.71500729 -12.09824164 21.59116686 -17.5480957 18.35009766 C-20.227153 14.33151171 -20.24420264 11.07368044 -19.5480957 6.35009766 C-14.73746849 -1.34690588 -8.20330356 0.06611965 0 0 Z " fill="#000000" transform="translate(117.548095703125,184.64990234375)"/>
<path d="M0 0 C1.22396484 -0.020625 2.44792969 -0.04125 3.70898438 -0.0625 C5.48692383 -0.07023438 5.48692383 -0.07023438 7.30078125 -0.078125 C8.38141846 -0.0874707 9.46205566 -0.09681641 10.57543945 -0.10644531 C15.18462715 0.42147608 18.54223703 1.95696116 21.625 5.4375 C23.07854621 9.28512232 22.9150038 12.33835456 21.6875 16.25 C19.79321954 18.63312703 18.38738821 19.9000559 15.6875 21.25 C11.31737717 21.50840788 6.94344302 21.52103382 2.56665039 21.54516602 C0.39339761 21.56235449 -1.77832346 21.60623807 -3.95117188 21.65039062 C-5.3385305 21.66052026 -6.72590204 21.66903552 -8.11328125 21.67578125 C-9.37309814 21.69036377 -10.63291504 21.70494629 -11.9309082 21.7199707 C-15.8913946 21.16954573 -17.50569813 20.03798822 -20.3125 17.25 C-22.05015543 13.77468913 -21.90835352 10.0411999 -21.3125 6.25 C-15.56788397 -1.20247486 -8.65717648 0.03612802 0 0 Z " fill="#000000" transform="translate(119.3125,128.75)"/>
<path d="M0 0 C3.5420773 3.09931764 4.84372778 4.88656044 5.5 9.5625 C4.86922578 13.89907279 3.80650145 16.64512391 0.25 19.3125 C-4.06801237 20.63189267 -7.68329318 20.58520303 -11.8125 18.75 C-14.16257379 16.86994097 -14.91130383 15.76399574 -16 13 C-16.23125754 8.62152387 -15.77437401 5.03249869 -13.125 1.5 C-8.92763339 -1.46284702 -4.79887119 -1.50314837 0 0 Z " fill="#000000" transform="translate(239,29)"/>
</svg>
